<?xml version="1.0" encoding="UTF-8" standalone="no"?>
<!DOCTYPE svg PUBLIC "-//W3C//DTD SVG 1.1//EN"
 "http://www.w3.org/Graphics/SVG/1.1/DTD/svg11.dtd">
<!-- Generated by graphviz version 2.43.0 (0)
 -->
<!-- Title: %3 Pages: 1 -->
<svg width="1850pt" height="1916pt"
 viewBox="0.00 0.00 1849.50 1916.00" xmlns="http://www.w3.org/2000/svg" xmlns:xlink="http://www.w3.org/1999/xlink">
<g id="graph0" class="graph" transform="scale(1 1) rotate(0) translate(4 1912)">
<title>%3</title>
<polygon fill="white" stroke="transparent" points="-4,4 -4,-1912 1845.5,-1912 1845.5,4 -4,4"/>
<!-- [root] fortimanager_dvm_cmd_add_device.authDevice (expand) -->
<g id="node1" class="node">
<title>[root] fortimanager_dvm_cmd_add_device.authDevice (expand)</title>
<polygon fill="none" stroke="black" points="1607.5,-252 1252.5,-252 1252.5,-216 1607.5,-216 1607.5,-252"/>
<text text-anchor="middle" x="1430" y="-230.3" font-family="Times,serif" font-size="14.00">fortimanager_dvm_cmd_add_device.authDevice</text>
</g>
<!-- [root] fortimanager_exec_workspace_action.lockADOM (expand) -->
<g id="node4" class="node">
<title>[root] fortimanager_exec_workspace_action.lockADOM (expand)</title>
<polygon fill="none" stroke="black" points="1404,-180 1042,-180 1042,-144 1404,-144 1404,-180"/>
<text text-anchor="middle" x="1223" y="-158.3" font-family="Times,serif" font-size="14.00">fortimanager_exec_workspace_action.lockADOM</text>
</g>
<!-- [root] fortimanager_dvm_cmd_add_device.authDevice (expand)&#45;&gt;[root] fortimanager_exec_workspace_action.lockADOM (expand) -->
<g id="edge1" class="edge">
<title>[root] fortimanager_dvm_cmd_add_device.authDevice (expand)&#45;&gt;[root] fortimanager_exec_workspace_action.lockADOM (expand)</title>
<path fill="none" stroke="black" d="M1379.63,-215.97C1350.58,-206.14 1313.87,-193.73 1283.29,-183.39"/>
<polygon fill="black" stroke="black" points="1284.19,-180 1273.6,-180.11 1281.95,-186.63 1284.19,-180"/>
</g>
<!-- [root] var.deviceInfo -->
<g id="node33" class="node">
<title>[root] var.deviceInfo</title>
<polygon fill="none" stroke="black" points="1532,-180 1422,-180 1422,-144 1538,-144 1538,-174 1532,-180"/>
<polyline fill="none" stroke="black" points="1532,-180 1532,-174 "/>
<polyline fill="none" stroke="black" points="1538,-174 1532,-174 "/>
<text text-anchor="middle" x="1480" y="-158.3" font-family="Times,serif" font-size="14.00">var.deviceInfo</text>
</g>
<!-- [root] fortimanager_dvm_cmd_add_device.authDevice (expand)&#45;&gt;[root] var.deviceInfo -->
<g id="edge2" class="edge">
<title>[root] fortimanager_dvm_cmd_add_device.authDevice (expand)&#45;&gt;[root] var.deviceInfo</title>
<path fill="none" stroke="black" d="M1442.36,-215.7C1448.23,-207.47 1455.37,-197.48 1461.84,-188.42"/>
<polygon fill="black" stroke="black" points="1464.82,-190.28 1467.78,-180.1 1459.12,-186.21 1464.82,-190.28"/>
</g>
<!-- [root] fortimanager_dvm_cmd_update_device.refreshDevice (orphan) -->
<g id="node2" class="node">
<title>[root] fortimanager_dvm_cmd_update_device.refreshDevice (orphan)</title>
<polygon fill="none" stroke="black" points="1016,-1620 618,-1620 618,-1584 1016,-1584 1016,-1620"/>
<text text-anchor="middle" x="817" y="-1598.3" font-family="Times,serif" font-size="14.00">fortimanager_dvm_cmd_update_device.refreshDevice</text>
</g>
<!-- [root] provider[&quot;registry.terraform.io/fortinetdev/fortimanager&quot;] -->
<g id="node29" class="node">
<title>[root] provider[&quot;registry.terraform.io/fortinetdev/fortimanager&quot;]</title>
<polygon fill="none" stroke="black" points="760,-36 364.52,-18 760,0 1155.48,-18 760,-36"/>
<text text-anchor="middle" x="760" y="-14.3" font-family="Times,serif" font-size="14.00">provider[&quot;registry.terraform.io/fortinetdev/fortimanager&quot;]</text>
</g>
<!-- [root] fortimanager_dvm_cmd_update_device.refreshDevice (orphan)&#45;&gt;[root] provider[&quot;registry.terraform.io/fortinetdev/fortimanager&quot;] -->
<g id="edge3" class="edge">
<title>[root] fortimanager_dvm_cmd_update_device.refreshDevice (orphan)&#45;&gt;[root] provider[&quot;registry.terraform.io/fortinetdev/fortimanager&quot;]</title>
<path fill="none" stroke="black" d="M815.02,-1583.98C812.11,-1557.36 807,-1504.23 807,-1459 807,-1459 807,-1459 807,-161 807,-118.72 787.99,-72.79 774.15,-44.95"/>
<polygon fill="black" stroke="black" points="777.19,-43.19 769.51,-35.89 770.96,-46.38 777.19,-43.19"/>
</g>
<!-- [root] fortimanager_dvmdb_adom.manageADOM (expand) -->
<g id="node3" class="node">
<title>[root] fortimanager_dvmdb_adom.manageADOM (expand)</title>
<polygon fill="none" stroke="black" points="1382.5,-108 1063.5,-108 1063.5,-72 1382.5,-72 1382.5,-108"/>
<text text-anchor="middle" x="1223" y="-86.3" font-family="Times,serif" font-size="14.00">fortimanager_dvmdb_adom.manageADOM</text>
</g>
<!-- [root] fortimanager_dvmdb_adom.manageADOM (expand)&#45;&gt;[root] provider[&quot;registry.terraform.io/fortinetdev/fortimanager&quot;] -->
<g id="edge4" class="edge">
<title>[root] fortimanager_dvmdb_adom.manageADOM (expand)&#45;&gt;[root] provider[&quot;registry.terraform.io/fortinetdev/fortimanager&quot;]</title>
<path fill="none" stroke="black" d="M1110.33,-71.97C1032.74,-60.23 930.72,-44.81 856.79,-33.63"/>
<polygon fill="black" stroke="black" points="856.97,-30.12 846.56,-32.09 855.92,-37.04 856.97,-30.12"/>
</g>
<!-- [root] var.workingADOM -->
<g id="node36" class="node">
<title>[root] var.workingADOM</title>
<polygon fill="none" stroke="black" points="1314.5,-36 1173.5,-36 1173.5,0 1320.5,0 1320.5,-30 1314.5,-36"/>
<polyline fill="none" stroke="black" points="1314.5,-36 1314.5,-30 "/>
<polyline fill="none" stroke="black" points="1320.5,-30 1314.5,-30 "/>
<text text-anchor="middle" x="1247" y="-14.3" font-family="Times,serif" font-size="14.00">var.workingADOM</text>
</g>
<!-- [root] fortimanager_dvmdb_adom.manageADOM (expand)&#45;&gt;[root] var.workingADOM -->
<g id="edge5" class="edge">
<title>[root] fortimanager_dvmdb_adom.manageADOM (expand)&#45;&gt;[root] var.workingADOM</title>
<path fill="none" stroke="black" d="M1228.93,-71.7C1231.61,-63.9 1234.83,-54.51 1237.8,-45.83"/>
<polygon fill="black" stroke="black" points="1241.2,-46.7 1241.14,-36.1 1234.58,-44.43 1241.2,-46.7"/>
</g>
<!-- [root] fortimanager_exec_workspace_action.lockADOM (expand)&#45;&gt;[root] fortimanager_dvmdb_adom.manageADOM (expand) -->
<g id="edge6" class="edge">
<title>[root] fortimanager_exec_workspace_action.lockADOM (expand)&#45;&gt;[root] fortimanager_dvmdb_adom.manageADOM (expand)</title>
<path fill="none" stroke="black" d="M1223,-143.7C1223,-135.98 1223,-126.71 1223,-118.11"/>
<polygon fill="black" stroke="black" points="1226.5,-118.1 1223,-108.1 1219.5,-118.1 1226.5,-118.1"/>
</g>
<!-- [root] fortimanager_exec_workspace_action.unlockADOM (expand) -->
<g id="node5" class="node">
<title>[root] fortimanager_exec_workspace_action.unlockADOM (expand)</title>
<polygon fill="none" stroke="black" points="1202,-1764 822,-1764 822,-1728 1202,-1728 1202,-1764"/>
<text text-anchor="middle" x="1012" y="-1742.3" font-family="Times,serif" font-size="14.00">fortimanager_exec_workspace_action.unlockADOM</text>
</g>
<!-- [root] fortimanager_object_cli_templategroup.Edge&#45;Template (expand) -->
<g id="node16" class="node">
<title>[root] fortimanager_object_cli_templategroup.Edge&#45;Template (expand)</title>
<polygon fill="none" stroke="black" points="1216,-1692 808,-1692 808,-1656 1216,-1656 1216,-1692"/>
<text text-anchor="middle" x="1012" y="-1670.3" font-family="Times,serif" font-size="14.00">fortimanager_object_cli_templategroup.Edge&#45;Template</text>
</g>
<!-- [root] fortimanager_exec_workspace_action.unlockADOM (expand)&#45;&gt;[root] fortimanager_object_cli_templategroup.Edge&#45;Template (expand) -->
<g id="edge7" class="edge">
<title>[root] fortimanager_exec_workspace_action.unlockADOM (expand)&#45;&gt;[root] fortimanager_object_cli_templategroup.Edge&#45;Template (expand)</title>
<path fill="none" stroke="black" d="M1012,-1727.7C1012,-1719.98 1012,-1710.71 1012,-1702.11"/>
<polygon fill="black" stroke="black" points="1015.5,-1702.1 1012,-1692.1 1008.5,-1702.1 1015.5,-1702.1"/>
</g>
<!-- [root] fortimanager_object_cli_templategroup.Hub&#45;Template (expand) -->
<g id="node17" class="node">
<title>[root] fortimanager_object_cli_templategroup.Hub&#45;Template (expand)</title>
<polygon fill="none" stroke="black" points="1634.5,-1692 1233.5,-1692 1233.5,-1656 1634.5,-1656 1634.5,-1692"/>
<text text-anchor="middle" x="1434" y="-1670.3" font-family="Times,serif" font-size="14.00">fortimanager_object_cli_templategroup.Hub&#45;Template</text>
</g>
<!-- [root] fortimanager_exec_workspace_action.unlockADOM (expand)&#45;&gt;[root] fortimanager_object_cli_templategroup.Hub&#45;Template (expand) -->
<g id="edge8" class="edge">
<title>[root] fortimanager_exec_workspace_action.unlockADOM (expand)&#45;&gt;[root] fortimanager_object_cli_templategroup.Hub&#45;Template (expand)</title>
<path fill="none" stroke="black" d="M1114.69,-1727.97C1177.1,-1717.61 1256.86,-1704.38 1321.05,-1693.74"/>
<polygon fill="black" stroke="black" points="1321.92,-1697.14 1331.21,-1692.05 1320.77,-1690.23 1321.92,-1697.14"/>
</g>
<!-- [root] fortimanager_json_generic_api.authDevice (orphan) -->
<g id="node6" class="node">
<title>[root] fortimanager_json_generic_api.authDevice (orphan)</title>
<polygon fill="none" stroke="black" points="769,-1548 449,-1548 449,-1512 769,-1512 769,-1548"/>
<text text-anchor="middle" x="609" y="-1526.3" font-family="Times,serif" font-size="14.00">fortimanager_json_generic_api.authDevice</text>
</g>
<!-- [root] fortimanager_json_generic_api.authDevice (orphan)&#45;&gt;[root] provider[&quot;registry.terraform.io/fortinetdev/fortimanager&quot;] -->
<g id="edge9" class="edge">
<title>[root] fortimanager_json_generic_api.authDevice (orphan)&#45;&gt;[root] provider[&quot;registry.terraform.io/fortinetdev/fortimanager&quot;]</title>
<path fill="none" stroke="black" d="M633.35,-1511.87C664.37,-1487.84 714,-1440.96 714,-1387 714,-1387 714,-1387 714,-161 714,-118.81 732.6,-72.85 746.15,-44.98"/>
<polygon fill="black" stroke="black" points="749.34,-46.42 750.69,-35.91 743.08,-43.29 749.34,-46.42"/>
</g>
<!-- [root] fortimanager_json_generic_api.updateDeviceDB (expand) -->
<g id="node7" class="node">
<title>[root] fortimanager_json_generic_api.updateDeviceDB (expand)</title>
<polygon fill="none" stroke="black" points="1841.5,-1476 1482.5,-1476 1482.5,-1440 1841.5,-1440 1841.5,-1476"/>
<text text-anchor="middle" x="1662" y="-1454.3" font-family="Times,serif" font-size="14.00">fortimanager_json_generic_api.updateDeviceDB</text>
</g>
<!-- [root] fortimanager_json_generic_api.updateDeviceDB (expand)&#45;&gt;[root] fortimanager_dvm_cmd_add_device.authDevice (expand) -->
<g id="edge10" class="edge">
<title>[root] fortimanager_json_generic_api.updateDeviceDB (expand)&#45;&gt;[root] fortimanager_dvm_cmd_add_device.authDevice (expand)</title>
<path fill="none" stroke="black" d="M1662,-1439.95C1662,-1413.29 1662,-1360.11 1662,-1315 1662,-1315 1662,-1315 1662,-377 1662,-336.36 1669.53,-316.94 1641,-288 1627.22,-274.02 1589.85,-262.66 1550.32,-254.09"/>
<polygon fill="black" stroke="black" points="1551.02,-250.66 1540.51,-252.03 1549.58,-257.51 1551.02,-250.66"/>
</g>
<!-- [root] fortimanager_object_cli_template.Edge&#45;Overlay (expand) -->
<g id="node8" class="node">
<title>[root] fortimanager_object_cli_template.Edge&#45;Overlay (expand)</title>
<polygon fill="none" stroke="black" points="1382,-1332 1026,-1332 1026,-1296 1382,-1296 1382,-1332"/>
<text text-anchor="middle" x="1204" y="-1310.3" font-family="Times,serif" font-size="14.00">fortimanager_object_cli_template.Edge&#45;Overlay</text>
</g>
<!-- [root] fortimanager_object_cli_template.Hub&#45;Underlay (expand) -->
<g id="node14" class="node">
<title>[root] fortimanager_object_cli_template.Hub&#45;Underlay (expand)</title>
<polygon fill="none" stroke="black" points="1383.5,-1260 1024.5,-1260 1024.5,-1224 1383.5,-1224 1383.5,-1260"/>
<text text-anchor="middle" x="1204" y="-1238.3" font-family="Times,serif" font-size="14.00">fortimanager_object_cli_template.Hub&#45;Underlay</text>
</g>
<!-- [root] fortimanager_object_cli_template.Edge&#45;Overlay (expand)&#45;&gt;[root] fortimanager_object_cli_template.Hub&#45;Underlay (expand) -->
<g id="edge11" class="edge">
<title>[root] fortimanager_object_cli_template.Edge&#45;Overlay (expand)&#45;&gt;[root] fortimanager_object_cli_template.Hub&#45;Underlay (expand)</title>
<path fill="none" stroke="black" d="M1204,-1295.7C1204,-1287.98 1204,-1278.71 1204,-1270.11"/>
<polygon fill="black" stroke="black" points="1207.5,-1270.1 1204,-1260.1 1200.5,-1270.1 1207.5,-1270.1"/>
</g>
<!-- [root] fortimanager_object_cli_template.Edge&#45;Routing (expand) -->
<g id="node9" class="node">
<title>[root] fortimanager_object_cli_template.Edge&#45;Routing (expand)</title>
<polygon fill="none" stroke="black" points="1382,-1476 1026,-1476 1026,-1440 1382,-1440 1382,-1476"/>
<text text-anchor="middle" x="1204" y="-1454.3" font-family="Times,serif" font-size="14.00">fortimanager_object_cli_template.Edge&#45;Routing</text>
</g>
<!-- [root] fortimanager_object_cli_template.Hub&#45;Overlay (expand) -->
<g id="node12" class="node">
<title>[root] fortimanager_object_cli_template.Hub&#45;Overlay (expand)</title>
<polygon fill="none" stroke="black" points="1378.5,-1404 1029.5,-1404 1029.5,-1368 1378.5,-1368 1378.5,-1404"/>
<text text-anchor="middle" x="1204" y="-1382.3" font-family="Times,serif" font-size="14.00">fortimanager_object_cli_template.Hub&#45;Overlay</text>
</g>
<!-- [root] fortimanager_object_cli_template.Edge&#45;Routing (expand)&#45;&gt;[root] fortimanager_object_cli_template.Hub&#45;Overlay (expand) -->
<g id="edge12" class="edge">
<title>[root] fortimanager_object_cli_template.Edge&#45;Routing (expand)&#45;&gt;[root] fortimanager_object_cli_template.Hub&#45;Overlay (expand)</title>
<path fill="none" stroke="black" d="M1204,-1439.7C1204,-1431.98 1204,-1422.71 1204,-1414.11"/>
<polygon fill="black" stroke="black" points="1207.5,-1414.1 1204,-1404.1 1200.5,-1414.1 1207.5,-1414.1"/>
</g>
<!-- [root] fortimanager_object_cli_template.Edge&#45;Underlay (expand) -->
<g id="node10" class="node">
<title>[root] fortimanager_object_cli_template.Edge&#45;Underlay (expand)</title>
<polygon fill="none" stroke="black" points="1387,-1188 1021,-1188 1021,-1152 1387,-1152 1387,-1188"/>
<text text-anchor="middle" x="1204" y="-1166.3" font-family="Times,serif" font-size="14.00">fortimanager_object_cli_template.Edge&#45;Underlay</text>
</g>
<!-- [root] fortimanager_object_cli_template.Project (expand) -->
<g id="node15" class="node">
<title>[root] fortimanager_object_cli_template.Project (expand)</title>
<polygon fill="none" stroke="black" points="1359,-1116 1049,-1116 1049,-1080 1359,-1080 1359,-1116"/>
<text text-anchor="middle" x="1204" y="-1094.3" font-family="Times,serif" font-size="14.00">fortimanager_object_cli_template.Project</text>
</g>
<!-- [root] fortimanager_object_cli_template.Edge&#45;Underlay (expand)&#45;&gt;[root] fortimanager_object_cli_template.Project (expand) -->
<g id="edge13" class="edge">
<title>[root] fortimanager_object_cli_template.Edge&#45;Underlay (expand)&#45;&gt;[root] fortimanager_object_cli_template.Project (expand)</title>
<path fill="none" stroke="black" d="M1204,-1151.7C1204,-1143.98 1204,-1134.71 1204,-1126.11"/>
<polygon fill="black" stroke="black" points="1207.5,-1126.1 1204,-1116.1 1200.5,-1126.1 1207.5,-1126.1"/>
</g>
<!-- [root] fortimanager_object_cli_template.Hub&#45;MultiRegion (expand) -->
<g id="node11" class="node">
<title>[root] fortimanager_object_cli_template.Hub&#45;MultiRegion (expand)</title>
<polygon fill="none" stroke="black" points="1561.5,-1620 1180.5,-1620 1180.5,-1584 1561.5,-1584 1561.5,-1620"/>
<text text-anchor="middle" x="1371" y="-1598.3" font-family="Times,serif" font-size="14.00">fortimanager_object_cli_template.Hub&#45;MultiRegion</text>
</g>
<!-- [root] fortimanager_object_cli_template.Hub&#45;Routing (expand) -->
<g id="node13" class="node">
<title>[root] fortimanager_object_cli_template.Hub&#45;Routing (expand)</title>
<polygon fill="none" stroke="black" points="1523,-1548 1173,-1548 1173,-1512 1523,-1512 1523,-1548"/>
<text text-anchor="middle" x="1348" y="-1526.3" font-family="Times,serif" font-size="14.00">fortimanager_object_cli_template.Hub&#45;Routing</text>
</g>
<!-- [root] fortimanager_object_cli_template.Hub&#45;MultiRegion (expand)&#45;&gt;[root] fortimanager_object_cli_template.Hub&#45;Routing (expand) -->
<g id="edge14" class="edge">
<title>[root] fortimanager_object_cli_template.Hub&#45;MultiRegion (expand)&#45;&gt;[root] fortimanager_object_cli_template.Hub&#45;Routing (expand)</title>
<path fill="none" stroke="black" d="M1365.31,-1583.7C1362.75,-1575.9 1359.67,-1566.51 1356.82,-1557.83"/>
<polygon fill="black" stroke="black" points="1360.07,-1556.51 1353.62,-1548.1 1353.42,-1558.7 1360.07,-1556.51"/>
</g>
<!-- [root] fortimanager_object_cli_template.Hub&#45;Overlay (expand)&#45;&gt;[root] fortimanager_object_cli_template.Edge&#45;Overlay (expand) -->
<g id="edge15" class="edge">
<title>[root] fortimanager_object_cli_template.Hub&#45;Overlay (expand)&#45;&gt;[root] fortimanager_object_cli_template.Edge&#45;Overlay (expand)</title>
<path fill="none" stroke="black" d="M1204,-1367.7C1204,-1359.98 1204,-1350.71 1204,-1342.11"/>
<polygon fill="black" stroke="black" points="1207.5,-1342.1 1204,-1332.1 1200.5,-1342.1 1207.5,-1342.1"/>
</g>
<!-- [root] fortimanager_object_cli_template.Hub&#45;Routing (expand)&#45;&gt;[root] fortimanager_object_cli_template.Edge&#45;Routing (expand) -->
<g id="edge16" class="edge">
<title>[root] fortimanager_object_cli_template.Hub&#45;Routing (expand)&#45;&gt;[root] fortimanager_object_cli_template.Edge&#45;Routing (expand)</title>
<path fill="none" stroke="black" d="M1312.77,-1511.88C1293.42,-1502.47 1269.23,-1490.71 1248.57,-1480.67"/>
<polygon fill="black" stroke="black" points="1249.89,-1477.41 1239.36,-1476.19 1246.83,-1483.71 1249.89,-1477.41"/>
</g>
<!-- [root] fortimanager_object_cli_template.Hub&#45;Underlay (expand)&#45;&gt;[root] fortimanager_object_cli_template.Edge&#45;Underlay (expand) -->
<g id="edge17" class="edge">
<title>[root] fortimanager_object_cli_template.Hub&#45;Underlay (expand)&#45;&gt;[root] fortimanager_object_cli_template.Edge&#45;Underlay (expand)</title>
<path fill="none" stroke="black" d="M1204,-1223.7C1204,-1215.98 1204,-1206.71 1204,-1198.11"/>
<polygon fill="black" stroke="black" points="1207.5,-1198.1 1204,-1188.1 1200.5,-1198.1 1207.5,-1198.1"/>
</g>
<!-- [root] fortimanager_object_fmg_variable.makeMetadata&#45;outbandwidth (expand) -->
<g id="node25" class="node">
<title>[root] fortimanager_object_fmg_variable.makeMetadata&#45;outbandwidth (expand)</title>
<polygon fill="none" stroke="black" points="1615,-1044 1141,-1044 1141,-1008 1615,-1008 1615,-1044"/>
<text text-anchor="middle" x="1378" y="-1022.3" font-family="Times,serif" font-size="14.00">fortimanager_object_fmg_variable.makeMetadata&#45;outbandwidth</text>
</g>
<!-- [root] fortimanager_object_cli_template.Project (expand)&#45;&gt;[root] fortimanager_object_fmg_variable.makeMetadata&#45;outbandwidth (expand) -->
<g id="edge18" class="edge">
<title>[root] fortimanager_object_cli_template.Project (expand)&#45;&gt;[root] fortimanager_object_fmg_variable.makeMetadata&#45;outbandwidth (expand)</title>
<path fill="none" stroke="black" d="M1246.57,-1079.88C1270.56,-1070.22 1300.73,-1058.09 1326.1,-1047.88"/>
<polygon fill="black" stroke="black" points="1327.6,-1051.05 1335.57,-1044.07 1324.99,-1044.55 1327.6,-1051.05"/>
</g>
<!-- [root] var.cli&#45;template&#45;project&#45;variables -->
<g id="node30" class="node">
<title>[root] var.cli&#45;template&#45;project&#45;variables</title>
<polygon fill="none" stroke="black" points="1117,-1044 871,-1044 871,-1008 1123,-1008 1123,-1038 1117,-1044"/>
<polyline fill="none" stroke="black" points="1117,-1044 1117,-1038 "/>
<polyline fill="none" stroke="black" points="1123,-1038 1117,-1038 "/>
<text text-anchor="middle" x="997" y="-1022.3" font-family="Times,serif" font-size="14.00">var.cli&#45;template&#45;project&#45;variables</text>
</g>
<!-- [root] fortimanager_object_cli_template.Project (expand)&#45;&gt;[root] var.cli&#45;template&#45;project&#45;variables -->
<g id="edge19" class="edge">
<title>[root] fortimanager_object_cli_template.Project (expand)&#45;&gt;[root] var.cli&#45;template&#45;project&#45;variables</title>
<path fill="none" stroke="black" d="M1153.63,-1079.97C1124.58,-1070.14 1087.87,-1057.73 1057.29,-1047.39"/>
<polygon fill="black" stroke="black" points="1058.19,-1044 1047.6,-1044.11 1055.95,-1050.63 1058.19,-1044"/>
</g>
<!-- [root] fortimanager_object_cli_templategroup.Edge&#45;Template (expand)&#45;&gt;[root] fortimanager_object_cli_template.Edge&#45;Routing (expand) -->
<g id="edge20" class="edge">
<title>[root] fortimanager_object_cli_templategroup.Edge&#45;Template (expand)&#45;&gt;[root] fortimanager_object_cli_template.Edge&#45;Routing (expand)</title>
<path fill="none" stroke="black" d="M1027.39,-1655.85C1061.23,-1618.13 1142.25,-1527.83 1181.68,-1483.88"/>
<polygon fill="black" stroke="black" points="1184.47,-1486.01 1188.54,-1476.23 1179.26,-1481.34 1184.47,-1486.01"/>
</g>
<!-- [root] fortimanager_object_cli_templategroup.Hub&#45;Template (expand)&#45;&gt;[root] fortimanager_object_cli_template.Hub&#45;MultiRegion (expand) -->
<g id="edge21" class="edge">
<title>[root] fortimanager_object_cli_templategroup.Hub&#45;Template (expand)&#45;&gt;[root] fortimanager_object_cli_template.Hub&#45;MultiRegion (expand)</title>
<path fill="none" stroke="black" d="M1418.43,-1655.7C1410.8,-1647.22 1401.48,-1636.86 1393.12,-1627.58"/>
<polygon fill="black" stroke="black" points="1395.69,-1625.2 1386.39,-1620.1 1390.48,-1629.88 1395.69,-1625.2"/>
</g>
<!-- [root] fortimanager_object_fmg_variable.makeMetadata&#45;hostname (expand) -->
<g id="node18" class="node">
<title>[root] fortimanager_object_fmg_variable.makeMetadata&#45;hostname (expand)</title>
<polygon fill="none" stroke="black" points="1611.5,-540 1166.5,-540 1166.5,-504 1611.5,-504 1611.5,-540"/>
<text text-anchor="middle" x="1389" y="-518.3" font-family="Times,serif" font-size="14.00">fortimanager_object_fmg_variable.makeMetadata&#45;hostname</text>
</g>
<!-- [root] fortimanager_object_fmg_variable.makeMetadata&#45;mpls_wan_ip (expand) -->
<g id="node24" class="node">
<title>[root] fortimanager_object_fmg_variable.makeMetadata&#45;mpls_wan_ip (expand)</title>
<polygon fill="none" stroke="black" points="1633,-468 1167,-468 1167,-432 1633,-432 1633,-468"/>
<text text-anchor="middle" x="1400" y="-446.3" font-family="Times,serif" font-size="14.00">fortimanager_object_fmg_variable.makeMetadata&#45;mpls_wan_ip</text>
</g>
<!-- [root] fortimanager_object_fmg_variable.makeMetadata&#45;hostname (expand)&#45;&gt;[root] fortimanager_object_fmg_variable.makeMetadata&#45;mpls_wan_ip (expand) -->
<g id="edge22" class="edge">
<title>[root] fortimanager_object_fmg_variable.makeMetadata&#45;hostname (expand)&#45;&gt;[root] fortimanager_object_fmg_variable.makeMetadata&#45;mpls_wan_ip (expand)</title>
<path fill="none" stroke="black" d="M1391.72,-503.7C1392.93,-495.98 1394.39,-486.71 1395.74,-478.11"/>
<polygon fill="black" stroke="black" points="1399.22,-478.53 1397.31,-468.1 1392.3,-477.44 1399.22,-478.53"/>
</g>
<!-- [root] fortimanager_object_fmg_variable.makeMetadata&#45;inbandwidth (expand) -->
<g id="node19" class="node">
<title>[root] fortimanager_object_fmg_variable.makeMetadata&#45;inbandwidth (expand)</title>
<polygon fill="none" stroke="black" points="1611,-828 1147,-828 1147,-792 1611,-792 1611,-828"/>
<text text-anchor="middle" x="1379" y="-806.3" font-family="Times,serif" font-size="14.00">fortimanager_object_fmg_variable.makeMetadata&#45;inbandwidth</text>
</g>
<!-- [root] fortimanager_object_fmg_variable.makeMetadata&#45;loopback (expand) -->
<g id="node22" class="node">
<title>[root] fortimanager_object_fmg_variable.makeMetadata&#45;loopback (expand)</title>
<polygon fill="none" stroke="black" points="1599,-756 1161,-756 1161,-720 1599,-720 1599,-756"/>
<text text-anchor="middle" x="1380" y="-734.3" font-family="Times,serif" font-size="14.00">fortimanager_object_fmg_variable.makeMetadata&#45;loopback</text>
</g>
<!-- [root] fortimanager_object_fmg_variable.makeMetadata&#45;inbandwidth (expand)&#45;&gt;[root] fortimanager_object_fmg_variable.makeMetadata&#45;loopback (expand) -->
<g id="edge23" class="edge">
<title>[root] fortimanager_object_fmg_variable.makeMetadata&#45;inbandwidth (expand)&#45;&gt;[root] fortimanager_object_fmg_variable.makeMetadata&#45;loopback (expand)</title>
<path fill="none" stroke="black" d="M1379.25,-791.7C1379.36,-783.98 1379.49,-774.71 1379.61,-766.11"/>
<polygon fill="black" stroke="black" points="1383.11,-766.15 1379.76,-756.1 1376.11,-766.05 1383.11,-766.15"/>
</g>
<!-- [root] fortimanager_object_fmg_variable.makeMetadata&#45;lan_ip_edu (expand) -->
<g id="node20" class="node">
<title>[root] fortimanager_object_fmg_variable.makeMetadata&#45;lan_ip_edu (expand)</title>
<polygon fill="none" stroke="black" points="1632,-324 1182,-324 1182,-288 1632,-288 1632,-324"/>
<text text-anchor="middle" x="1407" y="-302.3" font-family="Times,serif" font-size="14.00">fortimanager_object_fmg_variable.makeMetadata&#45;lan_ip_edu</text>
</g>
<!-- [root] fortimanager_object_fmg_variable.makeMetadata&#45;lan_ip_edu (expand)&#45;&gt;[root] fortimanager_dvm_cmd_add_device.authDevice (expand) -->
<g id="edge24" class="edge">
<title>[root] fortimanager_object_fmg_variable.makeMetadata&#45;lan_ip_edu (expand)&#45;&gt;[root] fortimanager_dvm_cmd_add_device.authDevice (expand)</title>
<path fill="none" stroke="black" d="M1412.69,-287.7C1415.25,-279.9 1418.33,-270.51 1421.18,-261.83"/>
<polygon fill="black" stroke="black" points="1424.58,-262.7 1424.38,-252.1 1417.93,-260.51 1424.58,-262.7"/>
</g>
<!-- [root] fortimanager_object_fmg_variable.makeMetadata&#45;lan_ip_fin (expand) -->
<g id="node21" class="node">
<title>[root] fortimanager_object_fmg_variable.makeMetadata&#45;lan_ip_fin (expand)</title>
<polygon fill="none" stroke="black" points="1623,-396 1181,-396 1181,-360 1623,-360 1623,-396"/>
<text text-anchor="middle" x="1402" y="-374.3" font-family="Times,serif" font-size="14.00">fortimanager_object_fmg_variable.makeMetadata&#45;lan_ip_fin</text>
</g>
<!-- [root] fortimanager_object_fmg_variable.makeMetadata&#45;lan_ip_fin (expand)&#45;&gt;[root] fortimanager_object_fmg_variable.makeMetadata&#45;lan_ip_edu (expand) -->
<g id="edge25" class="edge">
<title>[root] fortimanager_object_fmg_variable.makeMetadata&#45;lan_ip_fin (expand)&#45;&gt;[root] fortimanager_object_fmg_variable.makeMetadata&#45;lan_ip_edu (expand)</title>
<path fill="none" stroke="black" d="M1403.24,-359.7C1403.79,-351.98 1404.45,-342.71 1405.06,-334.11"/>
<polygon fill="black" stroke="black" points="1408.56,-334.33 1405.78,-324.1 1401.57,-333.83 1408.56,-334.33"/>
</g>
<!-- [root] fortimanager_object_fmg_variable.makeMetadata&#45;region (expand) -->
<g id="node27" class="node">
<title>[root] fortimanager_object_fmg_variable.makeMetadata&#45;region (expand)</title>
<polygon fill="none" stroke="black" points="1590.5,-684 1169.5,-684 1169.5,-648 1590.5,-648 1590.5,-684"/>
<text text-anchor="middle" x="1380" y="-662.3" font-family="Times,serif" font-size="14.00">fortimanager_object_fmg_variable.makeMetadata&#45;region</text>
</g>
<!-- [root] fortimanager_object_fmg_variable.makeMetadata&#45;loopback (expand)&#45;&gt;[root] fortimanager_object_fmg_variable.makeMetadata&#45;region (expand) -->
<g id="edge26" class="edge">
<title>[root] fortimanager_object_fmg_variable.makeMetadata&#45;loopback (expand)&#45;&gt;[root] fortimanager_object_fmg_variable.makeMetadata&#45;region (expand)</title>
<path fill="none" stroke="black" d="M1380,-719.7C1380,-711.98 1380,-702.71 1380,-694.11"/>
<polygon fill="black" stroke="black" points="1383.5,-694.1 1380,-684.1 1376.5,-694.1 1383.5,-694.1"/>
</g>
<!-- [root] fortimanager_object_fmg_variable.makeMetadata&#45;mpls_wan_gateway (expand) -->
<g id="node23" class="node">
<title>[root] fortimanager_object_fmg_variable.makeMetadata&#45;mpls_wan_gateway (expand)</title>
<polygon fill="none" stroke="black" points="1634,-900 1122,-900 1122,-864 1634,-864 1634,-900"/>
<text text-anchor="middle" x="1378" y="-878.3" font-family="Times,serif" font-size="14.00">fortimanager_object_fmg_variable.makeMetadata&#45;mpls_wan_gateway</text>
</g>
<!-- [root] fortimanager_object_fmg_variable.makeMetadata&#45;mpls_wan_gateway (expand)&#45;&gt;[root] fortimanager_object_fmg_variable.makeMetadata&#45;inbandwidth (expand) -->
<g id="edge27" class="edge">
<title>[root] fortimanager_object_fmg_variable.makeMetadata&#45;mpls_wan_gateway (expand)&#45;&gt;[root] fortimanager_object_fmg_variable.makeMetadata&#45;inbandwidth (expand)</title>
<path fill="none" stroke="black" d="M1378.25,-863.7C1378.36,-855.98 1378.49,-846.71 1378.61,-838.11"/>
<polygon fill="black" stroke="black" points="1382.11,-838.15 1378.76,-828.1 1375.11,-838.05 1382.11,-838.15"/>
</g>
<!-- [root] fortimanager_object_fmg_variable.makeMetadata&#45;mpls_wan_ip (expand)&#45;&gt;[root] fortimanager_object_fmg_variable.makeMetadata&#45;lan_ip_fin (expand) -->
<g id="edge28" class="edge">
<title>[root] fortimanager_object_fmg_variable.makeMetadata&#45;mpls_wan_ip (expand)&#45;&gt;[root] fortimanager_object_fmg_variable.makeMetadata&#45;lan_ip_fin (expand)</title>
<path fill="none" stroke="black" d="M1400.49,-431.7C1400.71,-423.98 1400.98,-414.71 1401.23,-406.11"/>
<polygon fill="black" stroke="black" points="1404.72,-406.2 1401.51,-396.1 1397.73,-406 1404.72,-406.2"/>
</g>
<!-- [root] fortimanager_object_fmg_variable.makeMetadata&#45;shaping_profile (expand) -->
<g id="node28" class="node">
<title>[root] fortimanager_object_fmg_variable.makeMetadata&#45;shaping_profile (expand)</title>
<polygon fill="none" stroke="black" points="1620,-972 1136,-972 1136,-936 1620,-936 1620,-972"/>
<text text-anchor="middle" x="1378" y="-950.3" font-family="Times,serif" font-size="14.00">fortimanager_object_fmg_variable.makeMetadata&#45;shaping_profile</text>
</g>
<!-- [root] fortimanager_object_fmg_variable.makeMetadata&#45;outbandwidth (expand)&#45;&gt;[root] fortimanager_object_fmg_variable.makeMetadata&#45;shaping_profile (expand) -->
<g id="edge29" class="edge">
<title>[root] fortimanager_object_fmg_variable.makeMetadata&#45;outbandwidth (expand)&#45;&gt;[root] fortimanager_object_fmg_variable.makeMetadata&#45;shaping_profile (expand)</title>
<path fill="none" stroke="black" d="M1378,-1007.7C1378,-999.98 1378,-990.71 1378,-982.11"/>
<polygon fill="black" stroke="black" points="1381.5,-982.1 1378,-972.1 1374.5,-982.1 1381.5,-982.1"/>
</g>
<!-- [root] fortimanager_object_fmg_variable.makeMetadata&#45;profile (expand) -->
<g id="node26" class="node">
<title>[root] fortimanager_object_fmg_variable.makeMetadata&#45;profile (expand)</title>
<polygon fill="none" stroke="black" points="1593.5,-612 1172.5,-612 1172.5,-576 1593.5,-576 1593.5,-612"/>
<text text-anchor="middle" x="1383" y="-590.3" font-family="Times,serif" font-size="14.00">fortimanager_object_fmg_variable.makeMetadata&#45;profile</text>
</g>
<!-- [root] fortimanager_object_fmg_variable.makeMetadata&#45;profile (expand)&#45;&gt;[root] fortimanager_object_fmg_variable.makeMetadata&#45;hostname (expand) -->
<g id="edge30" class="edge">
<title>[root] fortimanager_object_fmg_variable.makeMetadata&#45;profile (expand)&#45;&gt;[root] fortimanager_object_fmg_variable.makeMetadata&#45;hostname (expand)</title>
<path fill="none" stroke="black" d="M1384.48,-575.7C1385.14,-567.98 1385.94,-558.71 1386.68,-550.11"/>
<polygon fill="black" stroke="black" points="1390.17,-550.37 1387.53,-540.1 1383.19,-549.77 1390.17,-550.37"/>
</g>
<!-- [root] fortimanager_object_fmg_variable.makeMetadata&#45;region (expand)&#45;&gt;[root] fortimanager_object_fmg_variable.makeMetadata&#45;profile (expand) -->
<g id="edge31" class="edge">
<title>[root] fortimanager_object_fmg_variable.makeMetadata&#45;region (expand)&#45;&gt;[root] fortimanager_object_fmg_variable.makeMetadata&#45;profile (expand)</title>
<path fill="none" stroke="black" d="M1380.74,-647.7C1381.07,-639.98 1381.47,-630.71 1381.84,-622.11"/>
<polygon fill="black" stroke="black" points="1385.34,-622.25 1382.27,-612.1 1378.34,-621.95 1385.34,-622.25"/>
</g>
<!-- [root] fortimanager_object_fmg_variable.makeMetadata&#45;shaping_profile (expand)&#45;&gt;[root] fortimanager_object_fmg_variable.makeMetadata&#45;mpls_wan_gateway (expand) -->
<g id="edge32" class="edge">
<title>[root] fortimanager_object_fmg_variable.makeMetadata&#45;shaping_profile (expand)&#45;&gt;[root] fortimanager_object_fmg_variable.makeMetadata&#45;mpls_wan_gateway (expand)</title>
<path fill="none" stroke="black" d="M1378,-935.7C1378,-927.98 1378,-918.71 1378,-910.11"/>
<polygon fill="black" stroke="black" points="1381.5,-910.1 1378,-900.1 1374.5,-910.1 1381.5,-910.1"/>
</g>
<!-- [root] var.createADOM -->
<g id="node31" class="node">
<title>[root] var.createADOM</title>
<polygon fill="none" stroke="black" points="128,-1836 0,-1836 0,-1800 134,-1800 134,-1830 128,-1836"/>
<polyline fill="none" stroke="black" points="128,-1836 128,-1830 "/>
<polyline fill="none" stroke="black" points="134,-1830 128,-1830 "/>
<text text-anchor="middle" x="67" y="-1814.3" font-family="Times,serif" font-size="14.00">var.createADOM</text>
</g>
<!-- [root] var.createDevice -->
<g id="node32" class="node">
<title>[root] var.createDevice</title>
<polygon fill="none" stroke="black" points="282,-1836 152,-1836 152,-1800 288,-1800 288,-1830 282,-1836"/>
<polyline fill="none" stroke="black" points="282,-1836 282,-1830 "/>
<polyline fill="none" stroke="black" points="288,-1830 282,-1830 "/>
<text text-anchor="middle" x="220" y="-1814.3" font-family="Times,serif" font-size="14.00">var.createDevice</text>
</g>
<!-- [root] var.pkg -->
<g id="node34" class="node">
<title>[root] var.pkg</title>
<polygon fill="none" stroke="black" points="369.5,-1836 306.5,-1836 306.5,-1800 375.5,-1800 375.5,-1830 369.5,-1836"/>
<polyline fill="none" stroke="black" points="369.5,-1836 369.5,-1830 "/>
<polyline fill="none" stroke="black" points="375.5,-1830 369.5,-1830 "/>
<text text-anchor="middle" x="341" y="-1814.3" font-family="Times,serif" font-size="14.00">var.pkg</text>
</g>
<!-- [root] var.resource_tags -->
<g id="node35" class="node">
<title>[root] var.resource_tags</title>
<polygon fill="none" stroke="black" points="530.5,-1836 393.5,-1836 393.5,-1800 536.5,-1800 536.5,-1830 530.5,-1836"/>
<polyline fill="none" stroke="black" points="530.5,-1836 530.5,-1830 "/>
<polyline fill="none" stroke="black" points="536.5,-1830 530.5,-1830 "/>
<text text-anchor="middle" x="465" y="-1814.3" font-family="Times,serif" font-size="14.00">var.resource_tags</text>
</g>
<!-- [root] provider[&quot;registry.terraform.io/fortinetdev/fortimanager&quot;] (close) -->
<g id="node37" class="node">
<title>[root] provider[&quot;registry.terraform.io/fortinetdev/fortimanager&quot;] (close)</title>
<ellipse fill="none" stroke="black" cx="896" cy="-1818" rx="341.44" ry="18"/>
<text text-anchor="middle" x="896" y="-1814.3" font-family="Times,serif" font-size="14.00">[root] provider[&quot;registry.terraform.io/fortinetdev/fortimanager&quot;] (close)</text>
</g>
<!-- [root] provider[&quot;registry.terraform.io/fortinetdev/fortimanager&quot;] (close)&#45;&gt;[root] fortimanager_dvm_cmd_update_device.refreshDevice (orphan) -->
<g id="edge33" class="edge">
<title>[root] provider[&quot;registry.terraform.io/fortinetdev/fortimanager&quot;] (close)&#45;&gt;[root] fortimanager_dvm_cmd_update_device.refreshDevice (orphan)</title>
<path fill="none" stroke="black" d="M856.12,-1800.12C840.39,-1791.52 823.58,-1779.55 813,-1764 785.78,-1723.98 791.11,-1703.75 799,-1656 800.44,-1647.28 803.13,-1638.06 806,-1629.8"/>
<polygon fill="black" stroke="black" points="809.33,-1630.89 809.52,-1620.3 802.77,-1628.46 809.33,-1630.89"/>
</g>
<!-- [root] provider[&quot;registry.terraform.io/fortinetdev/fortimanager&quot;] (close)&#45;&gt;[root] fortimanager_exec_workspace_action.unlockADOM (expand) -->
<g id="edge34" class="edge">
<title>[root] provider[&quot;registry.terraform.io/fortinetdev/fortimanager&quot;] (close)&#45;&gt;[root] fortimanager_exec_workspace_action.unlockADOM (expand)</title>
<path fill="none" stroke="black" d="M924.08,-1800.05C939.36,-1790.84 958.44,-1779.32 974.93,-1769.37"/>
<polygon fill="black" stroke="black" points="977.02,-1772.19 983.78,-1764.03 973.41,-1766.2 977.02,-1772.19"/>
</g>
<!-- [root] provider[&quot;registry.terraform.io/fortinetdev/fortimanager&quot;] (close)&#45;&gt;[root] fortimanager_json_generic_api.authDevice (orphan) -->
<g id="edge35" class="edge">
<title>[root] provider[&quot;registry.terraform.io/fortinetdev/fortimanager&quot;] (close)&#45;&gt;[root] fortimanager_json_generic_api.authDevice (orphan)</title>
<path fill="none" stroke="black" d="M845.1,-1800.12C776.05,-1774.05 655.92,-1716.63 609,-1620 599.69,-1600.83 600.41,-1576.48 603.06,-1558.1"/>
<polygon fill="black" stroke="black" points="606.54,-1558.5 604.78,-1548.05 599.64,-1557.32 606.54,-1558.5"/>
</g>
<!-- [root] provider[&quot;registry.terraform.io/fortinetdev/fortimanager&quot;] (close)&#45;&gt;[root] fortimanager_json_generic_api.updateDeviceDB (expand) -->
<g id="edge36" class="edge">
<title>[root] provider[&quot;registry.terraform.io/fortinetdev/fortimanager&quot;] (close)&#45;&gt;[root] fortimanager_json_generic_api.updateDeviceDB (expand)</title>
<path fill="none" stroke="black" d="M1065.05,-1802.34C1290.63,-1780.45 1662,-1735.27 1662,-1675 1662,-1675 1662,-1675 1662,-1601 1662,-1561 1662,-1514.65 1662,-1486.08"/>
<polygon fill="black" stroke="black" points="1665.5,-1486.05 1662,-1476.05 1658.5,-1486.05 1665.5,-1486.05"/>
</g>
<!-- [root] root -->
<g id="node38" class="node">
<title>[root] root</title>
<ellipse fill="none" stroke="black" cx="341" cy="-1890" rx="58.49" ry="18"/>
<text text-anchor="middle" x="341" y="-1886.3" font-family="Times,serif" font-size="14.00">[root] root</text>
</g>
<!-- [root] root&#45;&gt;[root] var.createADOM -->
<g id="edge38" class="edge">
<title>[root] root&#45;&gt;[root] var.createADOM</title>
<path fill="none" stroke="black" d="M297.58,-1877.91C256.28,-1867.35 193.22,-1851.25 143.49,-1838.54"/>
<polygon fill="black" stroke="black" points="144.28,-1835.13 133.73,-1836.05 142.55,-1841.91 144.28,-1835.13"/>
</g>
<!-- [root] root&#45;&gt;[root] var.createDevice -->
<g id="edge39" class="edge">
<title>[root] root&#45;&gt;[root] var.createDevice</title>
<path fill="none" stroke="black" d="M314.74,-1873.81C298.26,-1864.27 276.71,-1851.81 258.34,-1841.18"/>
<polygon fill="black" stroke="black" points="260.01,-1838.1 249.6,-1836.13 256.51,-1844.16 260.01,-1838.1"/>
</g>
<!-- [root] root&#45;&gt;[root] var.pkg -->
<g id="edge40" class="edge">
<title>[root] root&#45;&gt;[root] var.pkg</title>
<path fill="none" stroke="black" d="M341,-1871.7C341,-1863.98 341,-1854.71 341,-1846.11"/>
<polygon fill="black" stroke="black" points="344.5,-1846.1 341,-1836.1 337.5,-1846.1 344.5,-1846.1"/>
</g>
<!-- [root] root&#45;&gt;[root] var.resource_tags -->
<g id="edge41" class="edge">
<title>[root] root&#45;&gt;[root] var.resource_tags</title>
<path fill="none" stroke="black" d="M367.91,-1873.81C384.8,-1864.27 406.88,-1851.81 425.71,-1841.18"/>
<polygon fill="black" stroke="black" points="427.67,-1844.09 434.66,-1836.13 424.23,-1837.99 427.67,-1844.09"/>
</g>
<!-- [root] root&#45;&gt;[root] provider[&quot;registry.terraform.io/fortinetdev/fortimanager&quot;] (close) -->
<g id="edge37" class="edge">
<title>[root] root&#45;&gt;[root] provider[&quot;registry.terraform.io/fortinetdev/fortimanager&quot;] (close)</title>
<path fill="none" stroke="black" d="M393.96,-1882.32C477.55,-1871.78 642.68,-1850.95 760.74,-1836.06"/>
<polygon fill="black" stroke="black" points="761.46,-1839.5 770.94,-1834.77 760.58,-1832.55 761.46,-1839.5"/>
</g>
</g>
</svg>
