<?xml version="1.0" encoding="UTF-8" standalone="no"?>
<!DOCTYPE svg PUBLIC "-//W3C//DTD SVG 1.1//EN"
 "http://www.w3.org/Graphics/SVG/1.1/DTD/svg11.dtd">
<!-- Generated by graphviz version 2.43.0 (0)
 -->
<!-- Title: %3 Pages: 1 -->
<svg width="1262pt" height="548pt"
 viewBox="0.00 0.00 1262.22 548.00" xmlns="http://www.w3.org/2000/svg" xmlns:xlink="http://www.w3.org/1999/xlink">
<g id="graph0" class="graph" transform="scale(1 1) rotate(0) translate(4 544)">
<title>%3</title>
<polygon fill="white" stroke="transparent" points="-4,4 -4,-544 1258.22,-544 1258.22,4 -4,4"/>
<!-- [root] fortimanager_dvm_cmd_add_device.addDevice (expand) -->
<g id="node1" class="node">
<title>[root] fortimanager_dvm_cmd_add_device.addDevice (expand)</title>
<polygon fill="none" stroke="black" points="1087.5,-252 738.5,-252 738.5,-216 1087.5,-216 1087.5,-252"/>
<text text-anchor="middle" x="913" y="-230.3" font-family="Times,serif" font-size="14.00">fortimanager_dvm_cmd_add_device.addDevice</text>
</g>
<!-- [root] fortimanager_exec_workspace_action.lockADOM (expand) -->
<g id="node3" class="node">
<title>[root] fortimanager_exec_workspace_action.lockADOM (expand)</title>
<polygon fill="none" stroke="black" points="966,-180 604,-180 604,-144 966,-144 966,-180"/>
<text text-anchor="middle" x="785" y="-158.3" font-family="Times,serif" font-size="14.00">fortimanager_exec_workspace_action.lockADOM</text>
</g>
<!-- [root] fortimanager_dvm_cmd_add_device.addDevice (expand)&#45;&gt;[root] fortimanager_exec_workspace_action.lockADOM (expand) -->
<g id="edge1" class="edge">
<title>[root] fortimanager_dvm_cmd_add_device.addDevice (expand)&#45;&gt;[root] fortimanager_exec_workspace_action.lockADOM (expand)</title>
<path fill="none" stroke="black" d="M881.69,-215.88C864.8,-206.64 843.75,-195.13 825.62,-185.21"/>
<polygon fill="black" stroke="black" points="826.89,-181.92 816.43,-180.19 823.53,-188.06 826.89,-181.92"/>
</g>
<!-- [root] var.deviceInfo -->
<g id="node8" class="node">
<title>[root] var.deviceInfo</title>
<polygon fill="none" stroke="black" points="1094,-180 984,-180 984,-144 1100,-144 1100,-174 1094,-180"/>
<polyline fill="none" stroke="black" points="1094,-180 1094,-174 "/>
<polyline fill="none" stroke="black" points="1100,-174 1094,-174 "/>
<text text-anchor="middle" x="1042" y="-158.3" font-family="Times,serif" font-size="14.00">var.deviceInfo</text>
</g>
<!-- [root] fortimanager_dvm_cmd_add_device.addDevice (expand)&#45;&gt;[root] var.deviceInfo -->
<g id="edge2" class="edge">
<title>[root] fortimanager_dvm_cmd_add_device.addDevice (expand)&#45;&gt;[root] var.deviceInfo</title>
<path fill="none" stroke="black" d="M944.56,-215.88C961.66,-206.6 982.98,-195.03 1001.32,-185.08"/>
<polygon fill="black" stroke="black" points="1003.2,-188.04 1010.32,-180.19 999.86,-181.88 1003.2,-188.04"/>
</g>
<!-- [root] fortimanager_dvmdb_adom.manageADOM (expand) -->
<g id="node2" class="node">
<title>[root] fortimanager_dvmdb_adom.manageADOM (expand)</title>
<polygon fill="none" stroke="black" points="944.5,-108 625.5,-108 625.5,-72 944.5,-72 944.5,-108"/>
<text text-anchor="middle" x="785" y="-86.3" font-family="Times,serif" font-size="14.00">fortimanager_dvmdb_adom.manageADOM</text>
</g>
<!-- [root] provider[&quot;registry.terraform.io/fortinetdev/fortimanager&quot;] -->
<g id="node6" class="node">
<title>[root] provider[&quot;registry.terraform.io/fortinetdev/fortimanager&quot;]</title>
<polygon fill="none" stroke="black" points="542,-36 146.52,-18 542,0 937.48,-18 542,-36"/>
<text text-anchor="middle" x="542" y="-14.3" font-family="Times,serif" font-size="14.00">provider[&quot;registry.terraform.io/fortinetdev/fortimanager&quot;]</text>
</g>
<!-- [root] fortimanager_dvmdb_adom.manageADOM (expand)&#45;&gt;[root] provider[&quot;registry.terraform.io/fortinetdev/fortimanager&quot;] -->
<g id="edge3" class="edge">
<title>[root] fortimanager_dvmdb_adom.manageADOM (expand)&#45;&gt;[root] provider[&quot;registry.terraform.io/fortinetdev/fortimanager&quot;]</title>
<path fill="none" stroke="black" d="M725.87,-71.97C688.6,-61.23 640.58,-47.4 602.97,-36.56"/>
<polygon fill="black" stroke="black" points="603.73,-33.14 593.15,-33.73 601.79,-39.87 603.73,-33.14"/>
</g>
<!-- [root] var.workingADOM -->
<g id="node11" class="node">
<title>[root] var.workingADOM</title>
<polygon fill="none" stroke="black" points="1096.5,-36 955.5,-36 955.5,0 1102.5,0 1102.5,-30 1096.5,-36"/>
<polyline fill="none" stroke="black" points="1096.5,-36 1096.5,-30 "/>
<polyline fill="none" stroke="black" points="1102.5,-30 1096.5,-30 "/>
<text text-anchor="middle" x="1029" y="-14.3" font-family="Times,serif" font-size="14.00">var.workingADOM</text>
</g>
<!-- [root] fortimanager_dvmdb_adom.manageADOM (expand)&#45;&gt;[root] var.workingADOM -->
<g id="edge4" class="edge">
<title>[root] fortimanager_dvmdb_adom.manageADOM (expand)&#45;&gt;[root] var.workingADOM</title>
<path fill="none" stroke="black" d="M844.38,-71.97C879.06,-62.01 923.01,-49.41 959.33,-38.99"/>
<polygon fill="black" stroke="black" points="960.71,-42.23 969.36,-36.11 958.78,-35.5 960.71,-42.23"/>
</g>
<!-- [root] fortimanager_exec_workspace_action.lockADOM (expand)&#45;&gt;[root] fortimanager_dvmdb_adom.manageADOM (expand) -->
<g id="edge5" class="edge">
<title>[root] fortimanager_exec_workspace_action.lockADOM (expand)&#45;&gt;[root] fortimanager_dvmdb_adom.manageADOM (expand)</title>
<path fill="none" stroke="black" d="M785,-143.7C785,-135.98 785,-126.71 785,-118.11"/>
<polygon fill="black" stroke="black" points="788.5,-118.1 785,-108.1 781.5,-118.1 788.5,-118.1"/>
</g>
<!-- [root] fortimanager_exec_workspace_action.unlockADOM (expand) -->
<g id="node4" class="node">
<title>[root] fortimanager_exec_workspace_action.unlockADOM (expand)</title>
<polygon fill="none" stroke="black" points="1103,-396 723,-396 723,-360 1103,-360 1103,-396"/>
<text text-anchor="middle" x="913" y="-374.3" font-family="Times,serif" font-size="14.00">fortimanager_exec_workspace_action.unlockADOM</text>
</g>
<!-- [root] fortimanager_json_generic_api.updateDeviceDB (expand) -->
<g id="node5" class="node">
<title>[root] fortimanager_json_generic_api.updateDeviceDB (expand)</title>
<polygon fill="none" stroke="black" points="1092.5,-324 733.5,-324 733.5,-288 1092.5,-288 1092.5,-324"/>
<text text-anchor="middle" x="913" y="-302.3" font-family="Times,serif" font-size="14.00">fortimanager_json_generic_api.updateDeviceDB</text>
</g>
<!-- [root] fortimanager_exec_workspace_action.unlockADOM (expand)&#45;&gt;[root] fortimanager_json_generic_api.updateDeviceDB (expand) -->
<g id="edge6" class="edge">
<title>[root] fortimanager_exec_workspace_action.unlockADOM (expand)&#45;&gt;[root] fortimanager_json_generic_api.updateDeviceDB (expand)</title>
<path fill="none" stroke="black" d="M913,-359.7C913,-351.98 913,-342.71 913,-334.11"/>
<polygon fill="black" stroke="black" points="916.5,-334.1 913,-324.1 909.5,-334.1 916.5,-334.1"/>
</g>
<!-- [root] fortimanager_json_generic_api.updateDeviceDB (expand)&#45;&gt;[root] fortimanager_dvm_cmd_add_device.addDevice (expand) -->
<g id="edge7" class="edge">
<title>[root] fortimanager_json_generic_api.updateDeviceDB (expand)&#45;&gt;[root] fortimanager_dvm_cmd_add_device.addDevice (expand)</title>
<path fill="none" stroke="black" d="M913,-287.7C913,-279.98 913,-270.71 913,-262.11"/>
<polygon fill="black" stroke="black" points="916.5,-262.1 913,-252.1 909.5,-262.1 916.5,-262.1"/>
</g>
<!-- [root] var.cli&#45;template&#45;project&#45;variables -->
<g id="node7" class="node">
<title>[root] var.cli&#45;template&#45;project&#45;variables</title>
<polygon fill="none" stroke="black" points="246,-468 0,-468 0,-432 252,-432 252,-462 246,-468"/>
<polyline fill="none" stroke="black" points="246,-468 246,-462 "/>
<polyline fill="none" stroke="black" points="252,-462 246,-462 "/>
<text text-anchor="middle" x="126" y="-446.3" font-family="Times,serif" font-size="14.00">var.cli&#45;template&#45;project&#45;variables</text>
</g>
<!-- [root] var.methodAPI -->
<g id="node9" class="node">
<title>[root] var.methodAPI</title>
<polygon fill="none" stroke="black" points="386,-468 270,-468 270,-432 392,-432 392,-462 386,-468"/>
<polyline fill="none" stroke="black" points="386,-468 386,-462 "/>
<polyline fill="none" stroke="black" points="392,-462 386,-462 "/>
<text text-anchor="middle" x="331" y="-446.3" font-family="Times,serif" font-size="14.00">var.methodAPI</text>
</g>
<!-- [root] var.resource_tags -->
<g id="node10" class="node">
<title>[root] var.resource_tags</title>
<polygon fill="none" stroke="black" points="547.5,-468 410.5,-468 410.5,-432 553.5,-432 553.5,-462 547.5,-468"/>
<polyline fill="none" stroke="black" points="547.5,-468 547.5,-462 "/>
<polyline fill="none" stroke="black" points="553.5,-462 547.5,-462 "/>
<text text-anchor="middle" x="482" y="-446.3" font-family="Times,serif" font-size="14.00">var.resource_tags</text>
</g>
<!-- [root] provider[&quot;registry.terraform.io/fortinetdev/fortimanager&quot;] (close) -->
<g id="node12" class="node">
<title>[root] provider[&quot;registry.terraform.io/fortinetdev/fortimanager&quot;] (close)</title>
<ellipse fill="none" stroke="black" cx="913" cy="-450" rx="341.44" ry="18"/>
<text text-anchor="middle" x="913" y="-446.3" font-family="Times,serif" font-size="14.00">[root] provider[&quot;registry.terraform.io/fortinetdev/fortimanager&quot;] (close)</text>
</g>
<!-- [root] provider[&quot;registry.terraform.io/fortinetdev/fortimanager&quot;] (close)&#45;&gt;[root] fortimanager_exec_workspace_action.unlockADOM (expand) -->
<g id="edge8" class="edge">
<title>[root] provider[&quot;registry.terraform.io/fortinetdev/fortimanager&quot;] (close)&#45;&gt;[root] fortimanager_exec_workspace_action.unlockADOM (expand)</title>
<path fill="none" stroke="black" d="M913,-431.7C913,-423.98 913,-414.71 913,-406.11"/>
<polygon fill="black" stroke="black" points="916.5,-406.1 913,-396.1 909.5,-406.1 916.5,-406.1"/>
</g>
<!-- [root] root -->
<g id="node13" class="node">
<title>[root] root</title>
<ellipse fill="none" stroke="black" cx="406" cy="-522" rx="58.49" ry="18"/>
<text text-anchor="middle" x="406" y="-518.3" font-family="Times,serif" font-size="14.00">[root] root</text>
</g>
<!-- [root] root&#45;&gt;[root] var.cli&#45;template&#45;project&#45;variables -->
<g id="edge10" class="edge">
<title>[root] root&#45;&gt;[root] var.cli&#45;template&#45;project&#45;variables</title>
<path fill="none" stroke="black" d="M361.94,-509.99C319.71,-499.43 255.04,-483.26 204.07,-470.52"/>
<polygon fill="black" stroke="black" points="204.62,-467.05 194.07,-468.02 202.93,-473.84 204.62,-467.05"/>
</g>
<!-- [root] root&#45;&gt;[root] var.methodAPI -->
<g id="edge11" class="edge">
<title>[root] root&#45;&gt;[root] var.methodAPI</title>
<path fill="none" stroke="black" d="M388.6,-504.76C379.13,-495.92 367.23,-484.82 356.71,-475"/>
<polygon fill="black" stroke="black" points="359.05,-472.39 349.35,-468.12 354.27,-477.51 359.05,-472.39"/>
</g>
<!-- [root] root&#45;&gt;[root] var.resource_tags -->
<g id="edge12" class="edge">
<title>[root] root&#45;&gt;[root] var.resource_tags</title>
<path fill="none" stroke="black" d="M423.63,-504.76C433.22,-495.92 445.28,-484.82 455.95,-475"/>
<polygon fill="black" stroke="black" points="458.42,-477.47 463.41,-468.12 453.68,-472.32 458.42,-477.47"/>
</g>
<!-- [root] root&#45;&gt;[root] provider[&quot;registry.terraform.io/fortinetdev/fortimanager&quot;] (close) -->
<g id="edge9" class="edge">
<title>[root] root&#45;&gt;[root] provider[&quot;registry.terraform.io/fortinetdev/fortimanager&quot;] (close)</title>
<path fill="none" stroke="black" d="M458.35,-513.77C535.37,-503.14 681.54,-482.96 787.39,-468.34"/>
<polygon fill="black" stroke="black" points="788.08,-471.78 797.5,-466.95 787.12,-464.85 788.08,-471.78"/>
</g>
</g>
</svg>
