<?xml version="1.0" encoding="UTF-8" standalone="no"?>
<!DOCTYPE svg PUBLIC "-//W3C//DTD SVG 1.1//EN"
 "http://www.w3.org/Graphics/SVG/1.1/DTD/svg11.dtd">
<!-- Generated by graphviz version 2.43.0 (0)
 -->
<!-- Title: %3 Pages: 1 -->
<svg width="1566pt" height="836pt"
 viewBox="0.00 0.00 1566.00 836.00" xmlns="http://www.w3.org/2000/svg" xmlns:xlink="http://www.w3.org/1999/xlink">
<g id="graph0" class="graph" transform="scale(1 1) rotate(0) translate(4 832)">
<title>%3</title>
<polygon fill="white" stroke="transparent" points="-4,4 -4,-832 1562,-832 1562,4 -4,4"/>
<!-- [root] fortimanager_dvm_cmd_add_device.addDevice (orphan) -->
<g id="node1" class="node">
<title>[root] fortimanager_dvm_cmd_add_device.addDevice (orphan)</title>
<polygon fill="none" stroke="black" points="882.5,-612 533.5,-612 533.5,-576 882.5,-576 882.5,-612"/>
<text text-anchor="middle" x="708" y="-590.3" font-family="Times,serif" font-size="14.00">fortimanager_dvm_cmd_add_device.addDevice</text>
</g>
<!-- [root] provider[&quot;registry.terraform.io/fortinetdev/fortimanager&quot;] -->
<g id="node12" class="node">
<title>[root] provider[&quot;registry.terraform.io/fortinetdev/fortimanager&quot;]</title>
<polygon fill="none" stroke="black" points="896,-36 500.52,-18 896,0 1291.48,-18 896,-36"/>
<text text-anchor="middle" x="896" y="-14.3" font-family="Times,serif" font-size="14.00">provider[&quot;registry.terraform.io/fortinetdev/fortimanager&quot;]</text>
</g>
<!-- [root] fortimanager_dvm_cmd_add_device.addDevice (orphan)&#45;&gt;[root] provider[&quot;registry.terraform.io/fortinetdev/fortimanager&quot;] -->
<g id="edge1" class="edge">
<title>[root] fortimanager_dvm_cmd_add_device.addDevice (orphan)&#45;&gt;[root] provider[&quot;registry.terraform.io/fortinetdev/fortimanager&quot;]</title>
<path fill="none" stroke="black" d="M707.41,-575.95C706.53,-549.3 705,-496.12 705,-451 705,-451 705,-451 705,-161 705,-95.87 777.42,-57.11 833.07,-36.94"/>
<polygon fill="black" stroke="black" points="834.26,-40.23 842.54,-33.62 831.95,-33.62 834.26,-40.23"/>
</g>
<!-- [root] fortimanager_dvm_cmd_add_device.addDevice01 (expand) -->
<g id="node2" class="node">
<title>[root] fortimanager_dvm_cmd_add_device.addDevice01 (expand)</title>
<polygon fill="none" stroke="black" points="1557.5,-252 1190.5,-252 1190.5,-216 1557.5,-216 1557.5,-252"/>
<text text-anchor="middle" x="1374" y="-230.3" font-family="Times,serif" font-size="14.00">fortimanager_dvm_cmd_add_device.addDevice01</text>
</g>
<!-- [root] fortimanager_exec_workspace_action.lockADOM (expand) -->
<g id="node6" class="node">
<title>[root] fortimanager_exec_workspace_action.lockADOM (expand)</title>
<polygon fill="none" stroke="black" points="1558,-180 1196,-180 1196,-144 1558,-144 1558,-180"/>
<text text-anchor="middle" x="1377" y="-158.3" font-family="Times,serif" font-size="14.00">fortimanager_exec_workspace_action.lockADOM</text>
</g>
<!-- [root] fortimanager_dvm_cmd_add_device.addDevice01 (expand)&#45;&gt;[root] fortimanager_exec_workspace_action.lockADOM (expand) -->
<g id="edge2" class="edge">
<title>[root] fortimanager_dvm_cmd_add_device.addDevice01 (expand)&#45;&gt;[root] fortimanager_exec_workspace_action.lockADOM (expand)</title>
<path fill="none" stroke="black" d="M1374.74,-215.7C1375.07,-207.98 1375.47,-198.71 1375.84,-190.11"/>
<polygon fill="black" stroke="black" points="1379.34,-190.25 1376.27,-180.1 1372.34,-189.95 1379.34,-190.25"/>
</g>
<!-- [root] var.device01Info -->
<g id="node14" class="node">
<title>[root] var.device01Info</title>
<polygon fill="none" stroke="black" points="1172,-180 1044,-180 1044,-144 1178,-144 1178,-174 1172,-180"/>
<polyline fill="none" stroke="black" points="1172,-180 1172,-174 "/>
<polyline fill="none" stroke="black" points="1178,-174 1172,-174 "/>
<text text-anchor="middle" x="1111" y="-158.3" font-family="Times,serif" font-size="14.00">var.device01Info</text>
</g>
<!-- [root] fortimanager_dvm_cmd_add_device.addDevice01 (expand)&#45;&gt;[root] var.device01Info -->
<g id="edge3" class="edge">
<title>[root] fortimanager_dvm_cmd_add_device.addDevice01 (expand)&#45;&gt;[root] var.device01Info</title>
<path fill="none" stroke="black" d="M1310,-215.97C1272.29,-205.93 1224.43,-193.19 1185.09,-182.72"/>
<polygon fill="black" stroke="black" points="1185.85,-179.3 1175.29,-180.11 1184.05,-186.07 1185.85,-179.3"/>
</g>
<!-- [root] fortimanager_dvm_cmd_add_device.addDevice02 (expand) -->
<g id="node3" class="node">
<title>[root] fortimanager_dvm_cmd_add_device.addDevice02 (expand)</title>
<polygon fill="none" stroke="black" points="1532.5,-324 1165.5,-324 1165.5,-288 1532.5,-288 1532.5,-324"/>
<text text-anchor="middle" x="1349" y="-302.3" font-family="Times,serif" font-size="14.00">fortimanager_dvm_cmd_add_device.addDevice02</text>
</g>
<!-- [root] fortimanager_dvm_cmd_add_device.addDevice02 (expand)&#45;&gt;[root] fortimanager_dvm_cmd_add_device.addDevice01 (expand) -->
<g id="edge4" class="edge">
<title>[root] fortimanager_dvm_cmd_add_device.addDevice02 (expand)&#45;&gt;[root] fortimanager_dvm_cmd_add_device.addDevice01 (expand)</title>
<path fill="none" stroke="black" d="M1355.18,-287.7C1358,-279.81 1361.39,-270.3 1364.52,-261.55"/>
<polygon fill="black" stroke="black" points="1367.82,-262.7 1367.89,-252.1 1361.23,-260.34 1367.82,-262.7"/>
</g>
<!-- [root] var.device02Info -->
<g id="node15" class="node">
<title>[root] var.device02Info</title>
<polygon fill="none" stroke="black" points="1166,-252 1038,-252 1038,-216 1172,-216 1172,-246 1166,-252"/>
<polyline fill="none" stroke="black" points="1166,-252 1166,-246 "/>
<polyline fill="none" stroke="black" points="1172,-246 1166,-246 "/>
<text text-anchor="middle" x="1105" y="-230.3" font-family="Times,serif" font-size="14.00">var.device02Info</text>
</g>
<!-- [root] fortimanager_dvm_cmd_add_device.addDevice02 (expand)&#45;&gt;[root] var.device02Info -->
<g id="edge5" class="edge">
<title>[root] fortimanager_dvm_cmd_add_device.addDevice02 (expand)&#45;&gt;[root] var.device02Info</title>
<path fill="none" stroke="black" d="M1289.62,-287.97C1254.94,-278.01 1210.99,-265.41 1174.67,-254.99"/>
<polygon fill="black" stroke="black" points="1175.22,-251.5 1164.64,-252.11 1173.29,-258.23 1175.22,-251.5"/>
</g>
<!-- [root] fortimanager_dvm_cmd_add_device.addDevice03 (expand) -->
<g id="node4" class="node">
<title>[root] fortimanager_dvm_cmd_add_device.addDevice03 (expand)</title>
<polygon fill="none" stroke="black" points="1482.5,-396 1115.5,-396 1115.5,-360 1482.5,-360 1482.5,-396"/>
<text text-anchor="middle" x="1299" y="-374.3" font-family="Times,serif" font-size="14.00">fortimanager_dvm_cmd_add_device.addDevice03</text>
</g>
<!-- [root] fortimanager_dvm_cmd_add_device.addDevice03 (expand)&#45;&gt;[root] fortimanager_dvm_cmd_add_device.addDevice02 (expand) -->
<g id="edge6" class="edge">
<title>[root] fortimanager_dvm_cmd_add_device.addDevice03 (expand)&#45;&gt;[root] fortimanager_dvm_cmd_add_device.addDevice02 (expand)</title>
<path fill="none" stroke="black" d="M1311.36,-359.7C1317.23,-351.47 1324.37,-341.48 1330.84,-332.42"/>
<polygon fill="black" stroke="black" points="1333.82,-334.28 1336.78,-324.1 1328.12,-330.21 1333.82,-334.28"/>
</g>
<!-- [root] var.device03Info -->
<g id="node16" class="node">
<title>[root] var.device03Info</title>
<polygon fill="none" stroke="black" points="1141,-324 1013,-324 1013,-288 1147,-288 1147,-318 1141,-324"/>
<polyline fill="none" stroke="black" points="1141,-324 1141,-318 "/>
<polyline fill="none" stroke="black" points="1147,-318 1141,-318 "/>
<text text-anchor="middle" x="1080" y="-302.3" font-family="Times,serif" font-size="14.00">var.device03Info</text>
</g>
<!-- [root] fortimanager_dvm_cmd_add_device.addDevice03 (expand)&#45;&gt;[root] var.device03Info -->
<g id="edge7" class="edge">
<title>[root] fortimanager_dvm_cmd_add_device.addDevice03 (expand)&#45;&gt;[root] var.device03Info</title>
<path fill="none" stroke="black" d="M1245.71,-359.97C1214.84,-350.1 1175.8,-337.62 1143.37,-327.25"/>
<polygon fill="black" stroke="black" points="1144.12,-323.82 1133.53,-324.11 1141.99,-330.49 1144.12,-323.82"/>
</g>
<!-- [root] fortimanager_dvmdb_adom.manageADOM (expand) -->
<g id="node5" class="node">
<title>[root] fortimanager_dvmdb_adom.manageADOM (expand)</title>
<polygon fill="none" stroke="black" points="1536.5,-108 1217.5,-108 1217.5,-72 1536.5,-72 1536.5,-108"/>
<text text-anchor="middle" x="1377" y="-86.3" font-family="Times,serif" font-size="14.00">fortimanager_dvmdb_adom.manageADOM</text>
</g>
<!-- [root] fortimanager_dvmdb_adom.manageADOM (expand)&#45;&gt;[root] provider[&quot;registry.terraform.io/fortinetdev/fortimanager&quot;] -->
<g id="edge8" class="edge">
<title>[root] fortimanager_dvmdb_adom.manageADOM (expand)&#45;&gt;[root] provider[&quot;registry.terraform.io/fortinetdev/fortimanager&quot;]</title>
<path fill="none" stroke="black" d="M1259.95,-71.97C1178.91,-60.17 1072.22,-44.65 995.33,-33.46"/>
<polygon fill="black" stroke="black" points="995.56,-29.95 985.16,-31.98 994.55,-36.88 995.56,-29.95"/>
</g>
<!-- [root] var.workingADOM -->
<g id="node19" class="node">
<title>[root] var.workingADOM</title>
<polygon fill="none" stroke="black" points="1450.5,-36 1309.5,-36 1309.5,0 1456.5,0 1456.5,-30 1450.5,-36"/>
<polyline fill="none" stroke="black" points="1450.5,-36 1450.5,-30 "/>
<polyline fill="none" stroke="black" points="1456.5,-30 1450.5,-30 "/>
<text text-anchor="middle" x="1383" y="-14.3" font-family="Times,serif" font-size="14.00">var.workingADOM</text>
</g>
<!-- [root] fortimanager_dvmdb_adom.manageADOM (expand)&#45;&gt;[root] var.workingADOM -->
<g id="edge9" class="edge">
<title>[root] fortimanager_dvmdb_adom.manageADOM (expand)&#45;&gt;[root] var.workingADOM</title>
<path fill="none" stroke="black" d="M1378.48,-71.7C1379.14,-63.98 1379.94,-54.71 1380.68,-46.11"/>
<polygon fill="black" stroke="black" points="1384.17,-46.37 1381.53,-36.1 1377.19,-45.77 1384.17,-46.37"/>
</g>
<!-- [root] fortimanager_exec_workspace_action.lockADOM (expand)&#45;&gt;[root] fortimanager_dvmdb_adom.manageADOM (expand) -->
<g id="edge10" class="edge">
<title>[root] fortimanager_exec_workspace_action.lockADOM (expand)&#45;&gt;[root] fortimanager_dvmdb_adom.manageADOM (expand)</title>
<path fill="none" stroke="black" d="M1377,-143.7C1377,-135.98 1377,-126.71 1377,-118.11"/>
<polygon fill="black" stroke="black" points="1380.5,-118.1 1377,-108.1 1373.5,-118.1 1380.5,-118.1"/>
</g>
<!-- [root] fortimanager_exec_workspace_action.unlockADOM (expand) -->
<g id="node7" class="node">
<title>[root] fortimanager_exec_workspace_action.unlockADOM (expand)</title>
<polygon fill="none" stroke="black" points="1363,-684 983,-684 983,-648 1363,-648 1363,-684"/>
<text text-anchor="middle" x="1173" y="-662.3" font-family="Times,serif" font-size="14.00">fortimanager_exec_workspace_action.unlockADOM</text>
</g>
<!-- [root] fortimanager_json_generic_api.updateDevice03DB (expand) -->
<g id="node10" class="node">
<title>[root] fortimanager_json_generic_api.updateDevice03DB (expand)</title>
<polygon fill="none" stroke="black" points="1445.5,-612 1068.5,-612 1068.5,-576 1445.5,-576 1445.5,-612"/>
<text text-anchor="middle" x="1257" y="-590.3" font-family="Times,serif" font-size="14.00">fortimanager_json_generic_api.updateDevice03DB</text>
</g>
<!-- [root] fortimanager_exec_workspace_action.unlockADOM (expand)&#45;&gt;[root] fortimanager_json_generic_api.updateDevice03DB (expand) -->
<g id="edge11" class="edge">
<title>[root] fortimanager_exec_workspace_action.unlockADOM (expand)&#45;&gt;[root] fortimanager_json_generic_api.updateDevice03DB (expand)</title>
<path fill="none" stroke="black" d="M1193.76,-647.7C1204.24,-638.97 1217.11,-628.24 1228.5,-618.75"/>
<polygon fill="black" stroke="black" points="1231.03,-621.19 1236.47,-612.1 1226.55,-615.82 1231.03,-621.19"/>
</g>
<!-- [root] fortimanager_json_generic_api.updateDevice01DB (expand) -->
<g id="node8" class="node">
<title>[root] fortimanager_json_generic_api.updateDevice01DB (expand)</title>
<polygon fill="none" stroke="black" points="1487.5,-468 1110.5,-468 1110.5,-432 1487.5,-432 1487.5,-468"/>
<text text-anchor="middle" x="1299" y="-446.3" font-family="Times,serif" font-size="14.00">fortimanager_json_generic_api.updateDevice01DB</text>
</g>
<!-- [root] fortimanager_json_generic_api.updateDevice01DB (expand)&#45;&gt;[root] fortimanager_dvm_cmd_add_device.addDevice03 (expand) -->
<g id="edge12" class="edge">
<title>[root] fortimanager_json_generic_api.updateDevice01DB (expand)&#45;&gt;[root] fortimanager_dvm_cmd_add_device.addDevice03 (expand)</title>
<path fill="none" stroke="black" d="M1299,-431.7C1299,-423.98 1299,-414.71 1299,-406.11"/>
<polygon fill="black" stroke="black" points="1302.5,-406.1 1299,-396.1 1295.5,-406.1 1302.5,-406.1"/>
</g>
<!-- [root] fortimanager_json_generic_api.updateDevice02DB (expand) -->
<g id="node9" class="node">
<title>[root] fortimanager_json_generic_api.updateDevice02DB (expand)</title>
<polygon fill="none" stroke="black" points="1487.5,-540 1110.5,-540 1110.5,-504 1487.5,-504 1487.5,-540"/>
<text text-anchor="middle" x="1299" y="-518.3" font-family="Times,serif" font-size="14.00">fortimanager_json_generic_api.updateDevice02DB</text>
</g>
<!-- [root] fortimanager_json_generic_api.updateDevice02DB (expand)&#45;&gt;[root] fortimanager_json_generic_api.updateDevice01DB (expand) -->
<g id="edge13" class="edge">
<title>[root] fortimanager_json_generic_api.updateDevice02DB (expand)&#45;&gt;[root] fortimanager_json_generic_api.updateDevice01DB (expand)</title>
<path fill="none" stroke="black" d="M1299,-503.7C1299,-495.98 1299,-486.71 1299,-478.11"/>
<polygon fill="black" stroke="black" points="1302.5,-478.1 1299,-468.1 1295.5,-478.1 1302.5,-478.1"/>
</g>
<!-- [root] fortimanager_json_generic_api.updateDevice03DB (expand)&#45;&gt;[root] fortimanager_json_generic_api.updateDevice02DB (expand) -->
<g id="edge14" class="edge">
<title>[root] fortimanager_json_generic_api.updateDevice03DB (expand)&#45;&gt;[root] fortimanager_json_generic_api.updateDevice02DB (expand)</title>
<path fill="none" stroke="black" d="M1267.38,-575.7C1272.26,-567.56 1278.19,-557.69 1283.58,-548.7"/>
<polygon fill="black" stroke="black" points="1286.59,-550.48 1288.74,-540.1 1280.59,-546.88 1286.59,-550.48"/>
</g>
<!-- [root] fortimanager_json_generic_api.updateDeviceDB (orphan) -->
<g id="node11" class="node">
<title>[root] fortimanager_json_generic_api.updateDeviceDB (orphan)</title>
<polygon fill="none" stroke="black" points="1092.5,-540 733.5,-540 733.5,-504 1092.5,-504 1092.5,-540"/>
<text text-anchor="middle" x="913" y="-518.3" font-family="Times,serif" font-size="14.00">fortimanager_json_generic_api.updateDeviceDB</text>
</g>
<!-- [root] fortimanager_json_generic_api.updateDeviceDB (orphan)&#45;&gt;[root] provider[&quot;registry.terraform.io/fortinetdev/fortimanager&quot;] -->
<g id="edge15" class="edge">
<title>[root] fortimanager_json_generic_api.updateDeviceDB (orphan)&#45;&gt;[root] provider[&quot;registry.terraform.io/fortinetdev/fortimanager&quot;]</title>
<path fill="none" stroke="black" d="M910.43,-504C906.64,-477.4 900,-424.3 900,-379 900,-379 900,-379 900,-161 900,-120.98 898.39,-74.64 897.22,-46.07"/>
<polygon fill="black" stroke="black" points="900.71,-45.89 896.79,-36.04 893.72,-46.18 900.71,-45.89"/>
</g>
<!-- [root] var.cli&#45;template&#45;project&#45;variables -->
<g id="node13" class="node">
<title>[root] var.cli&#45;template&#45;project&#45;variables</title>
<polygon fill="none" stroke="black" points="246,-756 0,-756 0,-720 252,-720 252,-750 246,-756"/>
<polyline fill="none" stroke="black" points="246,-756 246,-750 "/>
<polyline fill="none" stroke="black" points="252,-750 246,-750 "/>
<text text-anchor="middle" x="126" y="-734.3" font-family="Times,serif" font-size="14.00">var.cli&#45;template&#45;project&#45;variables</text>
</g>
<!-- [root] var.methodAPI -->
<g id="node17" class="node">
<title>[root] var.methodAPI</title>
<polygon fill="none" stroke="black" points="386,-756 270,-756 270,-720 392,-720 392,-750 386,-756"/>
<polyline fill="none" stroke="black" points="386,-756 386,-750 "/>
<polyline fill="none" stroke="black" points="392,-750 386,-750 "/>
<text text-anchor="middle" x="331" y="-734.3" font-family="Times,serif" font-size="14.00">var.methodAPI</text>
</g>
<!-- [root] var.resource_tags -->
<g id="node18" class="node">
<title>[root] var.resource_tags</title>
<polygon fill="none" stroke="black" points="547.5,-756 410.5,-756 410.5,-720 553.5,-720 553.5,-750 547.5,-756"/>
<polyline fill="none" stroke="black" points="547.5,-756 547.5,-750 "/>
<polyline fill="none" stroke="black" points="553.5,-750 547.5,-750 "/>
<text text-anchor="middle" x="482" y="-734.3" font-family="Times,serif" font-size="14.00">var.resource_tags</text>
</g>
<!-- [root] provider[&quot;registry.terraform.io/fortinetdev/fortimanager&quot;] (close) -->
<g id="node20" class="node">
<title>[root] provider[&quot;registry.terraform.io/fortinetdev/fortimanager&quot;] (close)</title>
<ellipse fill="none" stroke="black" cx="913" cy="-738" rx="341.44" ry="18"/>
<text text-anchor="middle" x="913" y="-734.3" font-family="Times,serif" font-size="14.00">[root] provider[&quot;registry.terraform.io/fortinetdev/fortimanager&quot;] (close)</text>
</g>
<!-- [root] provider[&quot;registry.terraform.io/fortinetdev/fortimanager&quot;] (close)&#45;&gt;[root] fortimanager_dvm_cmd_add_device.addDevice (orphan) -->
<g id="edge16" class="edge">
<title>[root] provider[&quot;registry.terraform.io/fortinetdev/fortimanager&quot;] (close)&#45;&gt;[root] fortimanager_dvm_cmd_add_device.addDevice (orphan)</title>
<path fill="none" stroke="black" d="M888.27,-719.87C851.49,-694.39 782.28,-646.45 741.15,-617.96"/>
<polygon fill="black" stroke="black" points="743.03,-615.01 732.82,-612.19 739.04,-620.76 743.03,-615.01"/>
</g>
<!-- [root] provider[&quot;registry.terraform.io/fortinetdev/fortimanager&quot;] (close)&#45;&gt;[root] fortimanager_exec_workspace_action.unlockADOM (expand) -->
<g id="edge17" class="edge">
<title>[root] provider[&quot;registry.terraform.io/fortinetdev/fortimanager&quot;] (close)&#45;&gt;[root] fortimanager_exec_workspace_action.unlockADOM (expand)</title>
<path fill="none" stroke="black" d="M975.28,-720.23C1012.67,-710.17 1060.44,-697.31 1099.65,-686.75"/>
<polygon fill="black" stroke="black" points="1100.68,-690.1 1109.43,-684.12 1098.86,-683.34 1100.68,-690.1"/>
</g>
<!-- [root] provider[&quot;registry.terraform.io/fortinetdev/fortimanager&quot;] (close)&#45;&gt;[root] fortimanager_json_generic_api.updateDeviceDB (orphan) -->
<g id="edge18" class="edge">
<title>[root] provider[&quot;registry.terraform.io/fortinetdev/fortimanager&quot;] (close)&#45;&gt;[root] fortimanager_json_generic_api.updateDeviceDB (orphan)</title>
<path fill="none" stroke="black" d="M913,-719.85C913,-682.83 913,-595.18 913,-550.39"/>
<polygon fill="black" stroke="black" points="916.5,-550.23 913,-540.23 909.5,-550.23 916.5,-550.23"/>
</g>
<!-- [root] root -->
<g id="node21" class="node">
<title>[root] root</title>
<ellipse fill="none" stroke="black" cx="406" cy="-810" rx="58.49" ry="18"/>
<text text-anchor="middle" x="406" y="-806.3" font-family="Times,serif" font-size="14.00">[root] root</text>
</g>
<!-- [root] root&#45;&gt;[root] var.cli&#45;template&#45;project&#45;variables -->
<g id="edge20" class="edge">
<title>[root] root&#45;&gt;[root] var.cli&#45;template&#45;project&#45;variables</title>
<path fill="none" stroke="black" d="M361.94,-797.99C319.71,-787.43 255.04,-771.26 204.07,-758.52"/>
<polygon fill="black" stroke="black" points="204.62,-755.05 194.07,-756.02 202.93,-761.84 204.62,-755.05"/>
</g>
<!-- [root] root&#45;&gt;[root] var.methodAPI -->
<g id="edge21" class="edge">
<title>[root] root&#45;&gt;[root] var.methodAPI</title>
<path fill="none" stroke="black" d="M388.6,-792.76C379.13,-783.92 367.23,-772.82 356.71,-763"/>
<polygon fill="black" stroke="black" points="359.05,-760.39 349.35,-756.12 354.27,-765.51 359.05,-760.39"/>
</g>
<!-- [root] root&#45;&gt;[root] var.resource_tags -->
<g id="edge22" class="edge">
<title>[root] root&#45;&gt;[root] var.resource_tags</title>
<path fill="none" stroke="black" d="M423.63,-792.76C433.22,-783.92 445.28,-772.82 455.95,-763"/>
<polygon fill="black" stroke="black" points="458.42,-765.47 463.41,-756.12 453.68,-760.32 458.42,-765.47"/>
</g>
<!-- [root] root&#45;&gt;[root] provider[&quot;registry.terraform.io/fortinetdev/fortimanager&quot;] (close) -->
<g id="edge19" class="edge">
<title>[root] root&#45;&gt;[root] provider[&quot;registry.terraform.io/fortinetdev/fortimanager&quot;] (close)</title>
<path fill="none" stroke="black" d="M458.35,-801.77C535.37,-791.14 681.54,-770.96 787.39,-756.34"/>
<polygon fill="black" stroke="black" points="788.08,-759.78 797.5,-754.95 787.12,-752.85 788.08,-759.78"/>
</g>
</g>
</svg>
