<?xml version="1.0" encoding="UTF-8" standalone="no"?>
<!DOCTYPE svg PUBLIC "-//W3C//DTD SVG 1.1//EN"
 "http://www.w3.org/Graphics/SVG/1.1/DTD/svg11.dtd">
<!-- Generated by graphviz version 2.43.0 (0)
 -->
<!-- Title: %3 Pages: 1 -->
<svg width="1485pt" height="620pt"
 viewBox="0.00 0.00 1484.74 620.00" xmlns="http://www.w3.org/2000/svg" xmlns:xlink="http://www.w3.org/1999/xlink">
<g id="graph0" class="graph" transform="scale(1 1) rotate(0) translate(4 616)">
<title>%3</title>
<polygon fill="white" stroke="transparent" points="-4,4 -4,-616 1480.74,-616 1480.74,4 -4,4"/>
<!-- [root] fortimanager_dvm_cmd_add_device.addDevice (orphan) -->
<g id="node1" class="node">
<title>[root] fortimanager_dvm_cmd_add_device.addDevice (orphan)</title>
<polygon fill="none" stroke="black" points="364.74,-108 15.74,-108 15.74,-72 364.74,-72 364.74,-108"/>
<text text-anchor="middle" x="190.24" y="-86.3" font-family="Times,serif" font-size="14.00">fortimanager_dvm_cmd_add_device.addDevice</text>
</g>
<!-- [root] provider[&quot;registry.terraform.io/fortinetdev/fortimanager&quot;] -->
<g id="node12" class="node">
<title>[root] provider[&quot;registry.terraform.io/fortinetdev/fortimanager&quot;]</title>
<polygon fill="none" stroke="black" points="395.24,-36 -0.24,-18 395.24,0 790.71,-18 395.24,-36"/>
<text text-anchor="middle" x="395.24" y="-14.3" font-family="Times,serif" font-size="14.00">provider[&quot;registry.terraform.io/fortinetdev/fortimanager&quot;]</text>
</g>
<!-- [root] fortimanager_dvm_cmd_add_device.addDevice (orphan)&#45;&gt;[root] provider[&quot;registry.terraform.io/fortinetdev/fortimanager&quot;] -->
<g id="edge1" class="edge">
<title>[root] fortimanager_dvm_cmd_add_device.addDevice (orphan)&#45;&gt;[root] provider[&quot;registry.terraform.io/fortinetdev/fortimanager&quot;]</title>
<path fill="none" stroke="black" d="M240.12,-71.97C270.84,-61.48 310.21,-48.03 341.6,-37.32"/>
<polygon fill="black" stroke="black" points="342.73,-40.63 351.06,-34.08 340.47,-34 342.73,-40.63"/>
</g>
<!-- [root] fortimanager_dvm_cmd_add_device.addDevice01 (expand) -->
<g id="node2" class="node">
<title>[root] fortimanager_dvm_cmd_add_device.addDevice01 (expand)</title>
<polygon fill="none" stroke="black" points="1080.74,-252 713.74,-252 713.74,-216 1080.74,-216 1080.74,-252"/>
<text text-anchor="middle" x="897.24" y="-230.3" font-family="Times,serif" font-size="14.00">fortimanager_dvm_cmd_add_device.addDevice01</text>
</g>
<!-- [root] fortimanager_exec_workspace_action.lockADOM (expand) -->
<g id="node6" class="node">
<title>[root] fortimanager_exec_workspace_action.lockADOM (expand)</title>
<polygon fill="none" stroke="black" points="1078.24,-180 716.24,-180 716.24,-144 1078.24,-144 1078.24,-180"/>
<text text-anchor="middle" x="897.24" y="-158.3" font-family="Times,serif" font-size="14.00">fortimanager_exec_workspace_action.lockADOM</text>
</g>
<!-- [root] fortimanager_dvm_cmd_add_device.addDevice01 (expand)&#45;&gt;[root] fortimanager_exec_workspace_action.lockADOM (expand) -->
<g id="edge2" class="edge">
<title>[root] fortimanager_dvm_cmd_add_device.addDevice01 (expand)&#45;&gt;[root] fortimanager_exec_workspace_action.lockADOM (expand)</title>
<path fill="none" stroke="black" d="M897.24,-215.7C897.24,-207.98 897.24,-198.71 897.24,-190.11"/>
<polygon fill="black" stroke="black" points="900.74,-190.1 897.24,-180.1 893.74,-190.1 900.74,-190.1"/>
</g>
<!-- [root] var.device01Info -->
<g id="node14" class="node">
<title>[root] var.device01Info</title>
<polygon fill="none" stroke="black" points="692.24,-180 564.24,-180 564.24,-144 698.24,-144 698.24,-174 692.24,-180"/>
<polyline fill="none" stroke="black" points="692.24,-180 692.24,-174 "/>
<polyline fill="none" stroke="black" points="698.24,-174 692.24,-174 "/>
<text text-anchor="middle" x="631.24" y="-158.3" font-family="Times,serif" font-size="14.00">var.device01Info</text>
</g>
<!-- [root] fortimanager_dvm_cmd_add_device.addDevice01 (expand)&#45;&gt;[root] var.device01Info -->
<g id="edge3" class="edge">
<title>[root] fortimanager_dvm_cmd_add_device.addDevice01 (expand)&#45;&gt;[root] var.device01Info</title>
<path fill="none" stroke="black" d="M832.51,-215.97C794.37,-205.93 745.96,-193.19 706.18,-182.72"/>
<polygon fill="black" stroke="black" points="706.82,-179.27 696.26,-180.11 705.04,-186.04 706.82,-179.27"/>
</g>
<!-- [root] fortimanager_dvm_cmd_add_device.addDevice02 (expand) -->
<g id="node3" class="node">
<title>[root] fortimanager_dvm_cmd_add_device.addDevice02 (expand)</title>
<polygon fill="none" stroke="black" points="1354.74,-324 987.74,-324 987.74,-288 1354.74,-288 1354.74,-324"/>
<text text-anchor="middle" x="1171.24" y="-302.3" font-family="Times,serif" font-size="14.00">fortimanager_dvm_cmd_add_device.addDevice02</text>
</g>
<!-- [root] fortimanager_dvm_cmd_add_device.addDevice02 (expand)&#45;&gt;[root] fortimanager_dvm_cmd_add_device.addDevice01 (expand) -->
<g id="edge4" class="edge">
<title>[root] fortimanager_dvm_cmd_add_device.addDevice02 (expand)&#45;&gt;[root] fortimanager_dvm_cmd_add_device.addDevice01 (expand)</title>
<path fill="none" stroke="black" d="M1104.56,-287.97C1065.11,-277.89 1014.99,-265.08 973.91,-254.59"/>
<polygon fill="black" stroke="black" points="974.77,-251.2 964.21,-252.11 973.04,-257.98 974.77,-251.2"/>
</g>
<!-- [root] var.device02Info -->
<g id="node15" class="node">
<title>[root] var.device02Info</title>
<polygon fill="none" stroke="black" points="689.24,-252 561.24,-252 561.24,-216 695.24,-216 695.24,-246 689.24,-252"/>
<polyline fill="none" stroke="black" points="689.24,-252 689.24,-246 "/>
<polyline fill="none" stroke="black" points="695.24,-246 689.24,-246 "/>
<text text-anchor="middle" x="628.24" y="-230.3" font-family="Times,serif" font-size="14.00">var.device02Info</text>
</g>
<!-- [root] fortimanager_dvm_cmd_add_device.addDevice02 (expand)&#45;&gt;[root] var.device02Info -->
<g id="edge5" class="edge">
<title>[root] fortimanager_dvm_cmd_add_device.addDevice02 (expand)&#45;&gt;[root] var.device02Info</title>
<path fill="none" stroke="black" d="M987.48,-288.55C901.47,-279.72 797.8,-267.44 705.24,-252 705.14,-251.98 705.04,-251.97 704.93,-251.95"/>
<polygon fill="black" stroke="black" points="705.81,-248.55 695.35,-250.25 704.58,-255.44 705.81,-248.55"/>
</g>
<!-- [root] fortimanager_dvm_cmd_add_device.addDevice03 (expand) -->
<g id="node4" class="node">
<title>[root] fortimanager_dvm_cmd_add_device.addDevice03 (expand)</title>
<polygon fill="none" stroke="black" points="1354.74,-396 987.74,-396 987.74,-360 1354.74,-360 1354.74,-396"/>
<text text-anchor="middle" x="1171.24" y="-374.3" font-family="Times,serif" font-size="14.00">fortimanager_dvm_cmd_add_device.addDevice03</text>
</g>
<!-- [root] fortimanager_dvm_cmd_add_device.addDevice03 (expand)&#45;&gt;[root] fortimanager_dvm_cmd_add_device.addDevice02 (expand) -->
<g id="edge6" class="edge">
<title>[root] fortimanager_dvm_cmd_add_device.addDevice03 (expand)&#45;&gt;[root] fortimanager_dvm_cmd_add_device.addDevice02 (expand)</title>
<path fill="none" stroke="black" d="M1171.24,-359.7C1171.24,-351.98 1171.24,-342.71 1171.24,-334.11"/>
<polygon fill="black" stroke="black" points="1174.74,-334.1 1171.24,-324.1 1167.74,-334.1 1174.74,-334.1"/>
</g>
<!-- [root] var.device03Info -->
<g id="node16" class="node">
<title>[root] var.device03Info</title>
<polygon fill="none" stroke="black" points="963.24,-324 835.24,-324 835.24,-288 969.24,-288 969.24,-318 963.24,-324"/>
<polyline fill="none" stroke="black" points="963.24,-324 963.24,-318 "/>
<polyline fill="none" stroke="black" points="969.24,-318 963.24,-318 "/>
<text text-anchor="middle" x="902.24" y="-302.3" font-family="Times,serif" font-size="14.00">var.device03Info</text>
</g>
<!-- [root] fortimanager_dvm_cmd_add_device.addDevice03 (expand)&#45;&gt;[root] var.device03Info -->
<g id="edge7" class="edge">
<title>[root] fortimanager_dvm_cmd_add_device.addDevice03 (expand)&#45;&gt;[root] var.device03Info</title>
<path fill="none" stroke="black" d="M1105.78,-359.97C1067.13,-349.91 1018.05,-337.14 977.77,-326.65"/>
<polygon fill="black" stroke="black" points="978.55,-323.24 967.99,-324.11 976.79,-330.02 978.55,-323.24"/>
</g>
<!-- [root] fortimanager_dvmdb_adom.manageADOM (expand) -->
<g id="node5" class="node">
<title>[root] fortimanager_dvmdb_adom.manageADOM (expand)</title>
<polygon fill="none" stroke="black" points="1048.74,-108 729.74,-108 729.74,-72 1048.74,-72 1048.74,-108"/>
<text text-anchor="middle" x="889.24" y="-86.3" font-family="Times,serif" font-size="14.00">fortimanager_dvmdb_adom.manageADOM</text>
</g>
<!-- [root] fortimanager_dvmdb_adom.manageADOM (expand)&#45;&gt;[root] provider[&quot;registry.terraform.io/fortinetdev/fortimanager&quot;] -->
<g id="edge8" class="edge">
<title>[root] fortimanager_dvmdb_adom.manageADOM (expand)&#45;&gt;[root] provider[&quot;registry.terraform.io/fortinetdev/fortimanager&quot;]</title>
<path fill="none" stroke="black" d="M769.02,-71.97C685.49,-60.13 575.41,-44.53 496.38,-33.33"/>
<polygon fill="black" stroke="black" points="496.8,-29.86 486.41,-31.92 495.82,-36.79 496.8,-29.86"/>
</g>
<!-- [root] var.workingADOM -->
<g id="node19" class="node">
<title>[root] var.workingADOM</title>
<polygon fill="none" stroke="black" points="956.74,-36 815.74,-36 815.74,0 962.74,0 962.74,-30 956.74,-36"/>
<polyline fill="none" stroke="black" points="956.74,-36 956.74,-30 "/>
<polyline fill="none" stroke="black" points="962.74,-30 956.74,-30 "/>
<text text-anchor="middle" x="889.24" y="-14.3" font-family="Times,serif" font-size="14.00">var.workingADOM</text>
</g>
<!-- [root] fortimanager_dvmdb_adom.manageADOM (expand)&#45;&gt;[root] var.workingADOM -->
<g id="edge9" class="edge">
<title>[root] fortimanager_dvmdb_adom.manageADOM (expand)&#45;&gt;[root] var.workingADOM</title>
<path fill="none" stroke="black" d="M889.24,-71.7C889.24,-63.98 889.24,-54.71 889.24,-46.11"/>
<polygon fill="black" stroke="black" points="892.74,-46.1 889.24,-36.1 885.74,-46.1 892.74,-46.1"/>
</g>
<!-- [root] fortimanager_exec_workspace_action.lockADOM (expand)&#45;&gt;[root] fortimanager_dvmdb_adom.manageADOM (expand) -->
<g id="edge10" class="edge">
<title>[root] fortimanager_exec_workspace_action.lockADOM (expand)&#45;&gt;[root] fortimanager_dvmdb_adom.manageADOM (expand)</title>
<path fill="none" stroke="black" d="M895.26,-143.7C894.38,-135.98 893.32,-126.71 892.34,-118.11"/>
<polygon fill="black" stroke="black" points="895.81,-117.64 891.19,-108.1 888.85,-118.44 895.81,-117.64"/>
</g>
<!-- [root] fortimanager_exec_workspace_action.unlockADOM (expand) -->
<g id="node7" class="node">
<title>[root] fortimanager_exec_workspace_action.unlockADOM (expand)</title>
<polygon fill="none" stroke="black" points="903.24,-468 523.24,-468 523.24,-432 903.24,-432 903.24,-468"/>
<text text-anchor="middle" x="713.24" y="-446.3" font-family="Times,serif" font-size="14.00">fortimanager_exec_workspace_action.unlockADOM</text>
</g>
<!-- [root] fortimanager_json_generic_api.updateDevice03DB (expand) -->
<g id="node10" class="node">
<title>[root] fortimanager_json_generic_api.updateDevice03DB (expand)</title>
<polygon fill="none" stroke="black" points="969.74,-396 592.74,-396 592.74,-360 969.74,-360 969.74,-396"/>
<text text-anchor="middle" x="781.24" y="-374.3" font-family="Times,serif" font-size="14.00">fortimanager_json_generic_api.updateDevice03DB</text>
</g>
<!-- [root] fortimanager_exec_workspace_action.unlockADOM (expand)&#45;&gt;[root] fortimanager_json_generic_api.updateDevice03DB (expand) -->
<g id="edge11" class="edge">
<title>[root] fortimanager_exec_workspace_action.unlockADOM (expand)&#45;&gt;[root] fortimanager_json_generic_api.updateDevice03DB (expand)</title>
<path fill="none" stroke="black" d="M730.05,-431.7C738.36,-423.14 748.54,-412.66 757.63,-403.3"/>
<polygon fill="black" stroke="black" points="760.16,-405.72 764.62,-396.1 755.14,-400.84 760.16,-405.72"/>
</g>
<!-- [root] fortimanager_json_generic_api.updateDevice01DB (expand) -->
<g id="node8" class="node">
<title>[root] fortimanager_json_generic_api.updateDevice01DB (expand)</title>
<polygon fill="none" stroke="black" points="1338.74,-468 961.74,-468 961.74,-432 1338.74,-432 1338.74,-468"/>
<text text-anchor="middle" x="1150.24" y="-446.3" font-family="Times,serif" font-size="14.00">fortimanager_json_generic_api.updateDevice01DB</text>
</g>
<!-- [root] fortimanager_json_generic_api.updateDevice01DB (expand)&#45;&gt;[root] fortimanager_dvm_cmd_add_device.addDevice03 (expand) -->
<g id="edge12" class="edge">
<title>[root] fortimanager_json_generic_api.updateDevice01DB (expand)&#45;&gt;[root] fortimanager_dvm_cmd_add_device.addDevice03 (expand)</title>
<path fill="none" stroke="black" d="M1155.43,-431.7C1157.77,-423.9 1160.59,-414.51 1163.19,-405.83"/>
<polygon fill="black" stroke="black" points="1166.59,-406.69 1166.11,-396.1 1159.88,-404.68 1166.59,-406.69"/>
</g>
<!-- [root] fortimanager_json_generic_api.updateDevice02DB (expand) -->
<g id="node9" class="node">
<title>[root] fortimanager_json_generic_api.updateDevice02DB (expand)</title>
<polygon fill="none" stroke="black" points="816.74,-324 439.74,-324 439.74,-288 816.74,-288 816.74,-324"/>
<text text-anchor="middle" x="628.24" y="-302.3" font-family="Times,serif" font-size="14.00">fortimanager_json_generic_api.updateDevice02DB</text>
</g>
<!-- [root] fortimanager_json_generic_api.updateDevice02DB (expand)&#45;&gt;[root] fortimanager_dvm_cmd_add_device.addDevice01 (expand) -->
<g id="edge13" class="edge">
<title>[root] fortimanager_json_generic_api.updateDevice02DB (expand)&#45;&gt;[root] fortimanager_dvm_cmd_add_device.addDevice01 (expand)</title>
<path fill="none" stroke="black" d="M693.7,-287.97C732.35,-277.91 781.43,-265.14 821.71,-254.65"/>
<polygon fill="black" stroke="black" points="822.69,-258.02 831.48,-252.11 820.92,-251.24 822.69,-258.02"/>
</g>
<!-- [root] fortimanager_json_generic_api.updateDevice02DB (expand)&#45;&gt;[root] var.device02Info -->
<g id="edge14" class="edge">
<title>[root] fortimanager_json_generic_api.updateDevice02DB (expand)&#45;&gt;[root] var.device02Info</title>
<path fill="none" stroke="black" d="M628.24,-287.7C628.24,-279.98 628.24,-270.71 628.24,-262.11"/>
<polygon fill="black" stroke="black" points="631.74,-262.1 628.24,-252.1 624.74,-262.1 631.74,-262.1"/>
</g>
<!-- [root] fortimanager_json_generic_api.updateDevice03DB (expand)&#45;&gt;[root] fortimanager_json_generic_api.updateDevice02DB (expand) -->
<g id="edge15" class="edge">
<title>[root] fortimanager_json_generic_api.updateDevice03DB (expand)&#45;&gt;[root] fortimanager_json_generic_api.updateDevice02DB (expand)</title>
<path fill="none" stroke="black" d="M743.81,-359.88C722.99,-350.35 696.88,-338.41 674.76,-328.28"/>
<polygon fill="black" stroke="black" points="676.09,-325.05 665.54,-324.07 673.18,-331.41 676.09,-325.05"/>
</g>
<!-- [root] fortimanager_json_generic_api.updateDevice03DB (expand)&#45;&gt;[root] var.device03Info -->
<g id="edge16" class="edge">
<title>[root] fortimanager_json_generic_api.updateDevice03DB (expand)&#45;&gt;[root] var.device03Info</title>
<path fill="none" stroke="black" d="M810.84,-359.88C826.8,-350.64 846.7,-339.13 863.84,-329.21"/>
<polygon fill="black" stroke="black" points="865.62,-332.23 872.52,-324.19 862.12,-326.17 865.62,-332.23"/>
</g>
<!-- [root] fortimanager_json_generic_api.updateDeviceDB (orphan) -->
<g id="node11" class="node">
<title>[root] fortimanager_json_generic_api.updateDeviceDB (orphan)</title>
<polygon fill="none" stroke="black" points="574.74,-396 215.74,-396 215.74,-360 574.74,-360 574.74,-396"/>
<text text-anchor="middle" x="395.24" y="-374.3" font-family="Times,serif" font-size="14.00">fortimanager_json_generic_api.updateDeviceDB</text>
</g>
<!-- [root] fortimanager_json_generic_api.updateDeviceDB (orphan)&#45;&gt;[root] provider[&quot;registry.terraform.io/fortinetdev/fortimanager&quot;] -->
<g id="edge17" class="edge">
<title>[root] fortimanager_json_generic_api.updateDeviceDB (orphan)&#45;&gt;[root] provider[&quot;registry.terraform.io/fortinetdev/fortimanager&quot;]</title>
<path fill="none" stroke="black" d="M395.24,-359.95C395.24,-333.29 395.24,-280.11 395.24,-235 395.24,-235 395.24,-235 395.24,-161 395.24,-121 395.24,-74.65 395.24,-46.08"/>
<polygon fill="black" stroke="black" points="398.74,-46.05 395.24,-36.05 391.74,-46.05 398.74,-46.05"/>
</g>
<!-- [root] var.cli&#45;template&#45;project&#45;variables -->
<g id="node13" class="node">
<title>[root] var.cli&#45;template&#45;project&#45;variables</title>
<polygon fill="none" stroke="black" points="1169.24,-540 923.24,-540 923.24,-504 1175.24,-504 1175.24,-534 1169.24,-540"/>
<polyline fill="none" stroke="black" points="1169.24,-540 1169.24,-534 "/>
<polyline fill="none" stroke="black" points="1175.24,-534 1169.24,-534 "/>
<text text-anchor="middle" x="1049.24" y="-518.3" font-family="Times,serif" font-size="14.00">var.cli&#45;template&#45;project&#45;variables</text>
</g>
<!-- [root] var.methodAPI -->
<g id="node17" class="node">
<title>[root] var.methodAPI</title>
<polygon fill="none" stroke="black" points="1309.24,-540 1193.24,-540 1193.24,-504 1315.24,-504 1315.24,-534 1309.24,-540"/>
<polyline fill="none" stroke="black" points="1309.24,-540 1309.24,-534 "/>
<polyline fill="none" stroke="black" points="1315.24,-534 1309.24,-534 "/>
<text text-anchor="middle" x="1254.24" y="-518.3" font-family="Times,serif" font-size="14.00">var.methodAPI</text>
</g>
<!-- [root] var.resource_tags -->
<g id="node18" class="node">
<title>[root] var.resource_tags</title>
<polygon fill="none" stroke="black" points="1470.74,-540 1333.74,-540 1333.74,-504 1476.74,-504 1476.74,-534 1470.74,-540"/>
<polyline fill="none" stroke="black" points="1470.74,-540 1470.74,-534 "/>
<polyline fill="none" stroke="black" points="1476.74,-534 1470.74,-534 "/>
<text text-anchor="middle" x="1405.24" y="-518.3" font-family="Times,serif" font-size="14.00">var.resource_tags</text>
</g>
<!-- [root] provider[&quot;registry.terraform.io/fortinetdev/fortimanager&quot;] (close) -->
<g id="node20" class="node">
<title>[root] provider[&quot;registry.terraform.io/fortinetdev/fortimanager&quot;] (close)</title>
<ellipse fill="none" stroke="black" cx="564.24" cy="-522" rx="341.44" ry="18"/>
<text text-anchor="middle" x="564.24" y="-518.3" font-family="Times,serif" font-size="14.00">[root] provider[&quot;registry.terraform.io/fortinetdev/fortimanager&quot;] (close)</text>
</g>
<!-- [root] provider[&quot;registry.terraform.io/fortinetdev/fortimanager&quot;] (close)&#45;&gt;[root] fortimanager_dvm_cmd_add_device.addDevice (orphan) -->
<g id="edge18" class="edge">
<title>[root] provider[&quot;registry.terraform.io/fortinetdev/fortimanager&quot;] (close)&#45;&gt;[root] fortimanager_dvm_cmd_add_device.addDevice (orphan)</title>
<path fill="none" stroke="black" d="M469.59,-504.69C357.92,-482.7 187.24,-439.24 187.24,-379 187.24,-379 187.24,-379 187.24,-233 187.24,-192.99 188.44,-146.65 189.33,-118.08"/>
<polygon fill="black" stroke="black" points="192.82,-118.15 189.64,-108.05 185.83,-117.93 192.82,-118.15"/>
</g>
<!-- [root] provider[&quot;registry.terraform.io/fortinetdev/fortimanager&quot;] (close)&#45;&gt;[root] fortimanager_exec_workspace_action.unlockADOM (expand) -->
<g id="edge19" class="edge">
<title>[root] provider[&quot;registry.terraform.io/fortinetdev/fortimanager&quot;] (close)&#45;&gt;[root] fortimanager_exec_workspace_action.unlockADOM (expand)</title>
<path fill="none" stroke="black" d="M600.31,-504.05C620.56,-494.54 646.04,-482.57 667.67,-472.41"/>
<polygon fill="black" stroke="black" points="669.42,-475.45 676.98,-468.03 666.45,-469.12 669.42,-475.45"/>
</g>
<!-- [root] provider[&quot;registry.terraform.io/fortinetdev/fortimanager&quot;] (close)&#45;&gt;[root] fortimanager_json_generic_api.updateDevice01DB (expand) -->
<g id="edge20" class="edge">
<title>[root] provider[&quot;registry.terraform.io/fortinetdev/fortimanager&quot;] (close)&#45;&gt;[root] fortimanager_json_generic_api.updateDevice01DB (expand)</title>
<path fill="none" stroke="black" d="M695.38,-505.33C784.9,-494.64 903.79,-480.44 997.57,-469.24"/>
<polygon fill="black" stroke="black" points="998.21,-472.69 1007.72,-468.02 997.38,-465.73 998.21,-472.69"/>
</g>
<!-- [root] provider[&quot;registry.terraform.io/fortinetdev/fortimanager&quot;] (close)&#45;&gt;[root] fortimanager_json_generic_api.updateDeviceDB (orphan) -->
<g id="edge21" class="edge">
<title>[root] provider[&quot;registry.terraform.io/fortinetdev/fortimanager&quot;] (close)&#45;&gt;[root] fortimanager_json_generic_api.updateDeviceDB (orphan)</title>
<path fill="none" stroke="black" d="M543.85,-503.87C513.78,-478.6 457.43,-431.25 423.42,-402.68"/>
<polygon fill="black" stroke="black" points="425.6,-399.94 415.7,-396.19 421.1,-405.3 425.6,-399.94"/>
</g>
<!-- [root] root -->
<g id="node21" class="node">
<title>[root] root</title>
<ellipse fill="none" stroke="black" cx="1151.24" cy="-594" rx="58.49" ry="18"/>
<text text-anchor="middle" x="1151.24" y="-590.3" font-family="Times,serif" font-size="14.00">[root] root</text>
</g>
<!-- [root] root&#45;&gt;[root] var.cli&#45;template&#45;project&#45;variables -->
<g id="edge23" class="edge">
<title>[root] root&#45;&gt;[root] var.cli&#45;template&#45;project&#45;variables</title>
<path fill="none" stroke="black" d="M1128.35,-577.29C1114.89,-568.06 1097.65,-556.22 1082.69,-545.96"/>
<polygon fill="black" stroke="black" points="1084.42,-542.9 1074.19,-540.13 1080.46,-548.67 1084.42,-542.9"/>
</g>
<!-- [root] root&#45;&gt;[root] var.methodAPI -->
<g id="edge24" class="edge">
<title>[root] root&#45;&gt;[root] var.methodAPI</title>
<path fill="none" stroke="black" d="M1174.35,-577.29C1187.94,-568.06 1205.36,-556.22 1220.46,-545.96"/>
<polygon fill="black" stroke="black" points="1222.73,-548.64 1229.04,-540.13 1218.8,-542.85 1222.73,-548.64"/>
</g>
<!-- [root] root&#45;&gt;[root] var.resource_tags -->
<g id="edge25" class="edge">
<title>[root] root&#45;&gt;[root] var.resource_tags</title>
<path fill="none" stroke="black" d="M1193.18,-581.44C1231.25,-570.95 1288.19,-555.26 1333.48,-542.77"/>
<polygon fill="black" stroke="black" points="1334.54,-546.11 1343.25,-540.08 1332.68,-539.36 1334.54,-546.11"/>
</g>
<!-- [root] root&#45;&gt;[root] provider[&quot;registry.terraform.io/fortinetdev/fortimanager&quot;] (close) -->
<g id="edge22" class="edge">
<title>[root] root&#45;&gt;[root] provider[&quot;registry.terraform.io/fortinetdev/fortimanager&quot;] (close)</title>
<path fill="none" stroke="black" d="M1097.85,-586.63C1009.93,-576.15 831.87,-554.92 705.65,-539.86"/>
<polygon fill="black" stroke="black" points="705.86,-536.36 695.52,-538.66 705.03,-543.31 705.86,-536.36"/>
</g>
</g>
</svg>
